<?xml version="1.0" encoding="utf-8"?>
<!-- Generator: Adobe Illustrator 21.1.0, SVG Export Plug-In . SVG Version: 6.00 Build 0)  -->
<svg version="1.1" id="Capa_1" xmlns="http://www.w3.org/2000/svg" xmlns:xlink="http://www.w3.org/1999/xlink" x="0px" y="0px"
	 viewBox="0 0 60 60" style="enable-background:new 0 0 60 60;" xml:space="preserve">
<style type="text/css">
	.st0{fill:none;stroke:#000000;stroke-width:0.2;stroke-miterlimit:10;}
</style>
<g>
	<path class="st0" d="M59,31c0.6,0,1-0.4,1-1s-0.4-1-1-1h-3c-0.1-1.6-0.3-3.2-0.6-4.8l2.9-0.8c0.5-0.1,0.8-0.7,0.7-1.2
		s-0.7-0.8-1.2-0.7l-2.9,0.8c-0.5-1.5-1.1-3-1.8-4.4l2.6-1.5c0.5-0.3,0.6-0.9,0.4-1.4c-0.3-0.5-0.9-0.6-1.4-0.4L52,16.1
		c-0.9-1.4-1.8-2.6-2.9-3.8l2.1-2.1c0.4-0.4,0.4-1,0-1.4s-1-0.4-1.4,0l-2.1,2.1c-1.2-1.1-2.5-2.1-3.8-2.9l1.5-2.6
		C45.6,4.9,45.5,4.3,45,4c-0.5-0.3-1.1-0.1-1.4,0.4L42.1,7c-1.4-0.7-2.9-1.4-4.4-1.8l0.8-2.9c0.1-0.5-0.2-1.1-0.7-1.2
		c-0.5-0.1-1.1,0.2-1.2,0.7l-0.8,2.9C34.2,4.3,32.6,4.1,31,4V1c0-0.6-0.4-1-1-1s-1,0.4-1,1v3c-1.6,0.1-3.2,0.3-4.8,0.6l-0.8-2.9
		c-0.1-0.5-0.7-0.8-1.2-0.7c-0.5,0.1-0.9,0.7-0.7,1.2l0.8,2.9c-1.5,0.5-3,1.1-4.4,1.8l-1.5-2.6C16.1,3.9,15.5,3.7,15,4
		c-0.5,0.3-0.6,0.9-0.4,1.4L16.1,8c-1.4,0.9-2.6,1.8-3.8,2.9l-2.1-2.1c-0.4-0.4-1-0.4-1.4,0s-0.4,1,0,1.4l2.1,2.1
		c-1.1,1.2-2.1,2.5-2.9,3.8l-2.6-1.5C4.9,14.4,4.3,14.5,4,15s-0.1,1.1,0.4,1.4L7,17.9c-0.7,1.4-1.4,2.9-1.8,4.4l-2.9-0.8
		c-0.5-0.1-1.1,0.2-1.2,0.7s0.2,1.1,0.7,1.2l2.9,0.8C4.3,25.8,4.1,27.4,4,29H1c-0.6,0-1,0.4-1,1s0.4,1,1,1h3
		c0.1,1.6,0.3,3.2,0.6,4.8l-2.9,0.8c-0.5,0.1-0.9,0.7-0.7,1.2c0.1,0.4,0.5,0.7,1,0.7c0.1,0,0.2,0,0.3,0l2.9-0.8
		c0.5,1.5,1.1,3,1.8,4.4l-2.6,1.5C3.9,43.9,3.7,44.5,4,45c0.2,0.3,0.5,0.5,0.9,0.5c0.2,0,0.3,0,0.5-0.1L8,43.8
		c0.9,1.4,1.8,2.7,2.9,3.8l-2.1,2.1c-0.4,0.4-0.4,1,0,1.4c0.2,0.2,0.5,0.3,0.7,0.3s0.5-0.1,0.7-0.3l2.1-2.1c1.2,1.1,2.5,2.1,3.8,2.9
		l-1.5,2.6c-0.3,0.5-0.1,1.1,0.4,1.4c0.2,0.1,0.3,0.1,0.5,0.1c0.3,0,0.7-0.2,0.9-0.5l1.5-2.6c1.4,0.7,2.9,1.4,4.4,1.8l-0.8,2.9
		c-0.1,0.5,0.2,1.1,0.7,1.2c0.1,0,0.2,0,0.3,0c0.4,0,0.8-0.3,1-0.7l0.8-2.9c1.6,0.4,3.1,0.6,4.8,0.6v3c0,0.6,0.4,1,1,1s1-0.4,1-1v-3
		c1.6-0.1,3.2-0.3,4.8-0.6l0.8,2.9c0.1,0.4,0.5,0.7,1,0.7c0.1,0,0.2,0,0.3,0c0.5-0.1,0.8-0.7,0.7-1.2l-0.8-2.9
		c1.5-0.5,3-1.1,4.4-1.8l1.5,2.6c0.2,0.3,0.5,0.5,0.9,0.5c0.2,0,0.3,0,0.5-0.1c0.5-0.3,0.6-0.9,0.4-1.4L43.9,52
		c1.4-0.9,2.6-1.8,3.8-2.9l2.1,2.1c0.2,0.2,0.5,0.3,0.7,0.3s0.5-0.1,0.7-0.3c0.4-0.4,0.4-1,0-1.4l-2.1-2.1c1.1-1.2,2.1-2.5,2.9-3.8
		l2.6,1.5c0.2,0.1,0.3,0.1,0.5,0.1c0.3,0,0.7-0.2,0.9-0.5c0.3-0.5,0.1-1.1-0.4-1.4L53,42.1c0.7-1.4,1.4-2.9,1.8-4.4l2.9,0.8
		c0.1,0,0.2,0,0.3,0c0.4,0,0.8-0.3,1-0.7c0.1-0.5-0.2-1.1-0.7-1.2l-2.9-0.8c0.4-1.6,0.6-3.2,0.6-4.8C56,31,59,31,59,31z M42,50.8
		c-11.2,6.4-25.4,2.9-32.3-7.9L21,36.3c2.1,3,5.5,4.7,9,4.7c1.9,0,3.8-0.5,5.5-1.5c1.4-0.8,2.6-1.9,3.5-3.2l11.3,6.5
		C48.3,46,45.5,48.8,42,50.8z M18,9.2c3.5-2,7.2-3,11-3.2v13c-1.5,0.1-3.1,0.6-4.5,1.4c-5,2.9-6.8,9-4.5,14.1L8.7,41.1
		C2.8,29.8,6.8,15.7,18,9.2z M34.5,37.8c-4.3,2.5-9.8,1-12.3-3.3c-2.5-4.3-1-9.8,3.3-12.3c4.3-2.5,9.8-1,12.3,3.3
		C40.3,29.8,38.8,35.3,34.5,37.8z M40,34.6c1.4-3.1,1.4-6.9-0.4-10.1c-1.9-3.2-5.1-5.1-8.5-5.4V6c7.9,0.3,15.5,4.6,19.8,12
		c4.3,7.4,4.1,16.1,0.5,23.1L40,34.6z"/>
	<path class="st0" d="M31.6,24.2C30,23.8,28.4,24,27,24.8c-1.4,0.8-2.4,2.1-2.8,3.6C23.8,30,24,31.6,24.8,33s2.1,2.4,3.6,2.8
		c0.5,0.1,1,0.2,1.6,0.2c1,0,2.1-0.3,3-0.8c1.4-0.8,2.4-2.1,2.8-3.6c0.4-1.5,0.2-3.2-0.6-4.6S33.1,24.6,31.6,24.2z M33.9,31
		c-0.3,1-0.9,1.9-1.9,2.4s-2,0.7-3,0.4c-1-0.3-1.9-0.9-2.4-1.9c-0.5-0.9-0.7-2-0.4-3s0.9-1.9,1.9-2.4c0.6-0.4,1.3-0.5,2-0.5
		c0.3,0,0.7,0,1,0.1c1,0.3,1.9,0.9,2.4,1.9C34,28.9,34.1,30,33.9,31z"/>
</g>
</svg>
