<?xml version="1.0" encoding="utf-8"?>
<!-- Generator: Adobe Illustrator 21.1.0, SVG Export Plug-In . SVG Version: 6.00 Build 0)  -->
<svg version="1.1" id="Layer_1" xmlns="http://www.w3.org/2000/svg" xmlns:xlink="http://www.w3.org/1999/xlink" x="0px" y="0px"
	 viewBox="0 0 385.3 669" style="enable-background:new 0 0 385.3 669;" xml:space="preserve">
<style type="text/css">
	.st0{fill:#F5E8C4;}
	.st1{fill:#534741;}
	.st2{opacity:0.33;}
	.st3{fill:none;stroke:#823E20;stroke-miterlimit:10;}
	.st4{fill:none;stroke:#000000;stroke-miterlimit:10;}
	.st5{fill:none;stroke:#000000;stroke-miterlimit:10;stroke-dasharray:7.5514,7.5514,1.8879,7.5514,1.8879,7.5514;}
	.st6{fill:none;stroke:#000000;stroke-miterlimit:10;stroke-dasharray:7.5514,1.8879,7.5514,7.5514,1.8879,7.5514;}
	.st7{fill:none;stroke:#000000;stroke-miterlimit:10;stroke-dasharray:9.9692,9.9692,2.4923,2.4923,2.4923,9.9692;}
	.st8{fill:none;stroke:#000000;stroke-miterlimit:10;stroke-dasharray:2.4923,2.4923,9.9692,9.9692,2.4923,2.4923;}
	.st9{fill:none;stroke:#000000;stroke-miterlimit:10;stroke-dasharray:4.1223,4.1223,1.0306,1.0306,1.0306,4.1223;}
	.st10{fill:none;stroke:#000000;stroke-miterlimit:10;stroke-dasharray:3.8671,3.8671,3.8671,3.8671,0.9668,3.8671;}
	.st11{fill:none;stroke:#000000;stroke-miterlimit:10;stroke-dasharray:1.1336,1.1336,1.1336,1.1336,0.2834,1.1336;}
	.st12{fill:none;stroke:#000000;stroke-miterlimit:10;stroke-dasharray:6.2764,6.2764,1.5691,6.2764,6.2764,6.2764;}
	.st13{fill:none;stroke:#000000;stroke-miterlimit:10;stroke-dasharray:6.2764,6.2764,6.2764,6.2764,1.5691,6.2764;}
	.st14{opacity:0.88;}
	.st15{fill:#C6B198;stroke:#534741;stroke-miterlimit:10;}
	.st16{fill:none;stroke:#6D3922;stroke-width:0.75;stroke-miterlimit:10;}
	.st17{fill:#F4E7C3;}
	.st18{fill:#EFE2BA;}
	.st19{fill:#FEFEFE;}
	.st20{opacity:0.17;}
	.st21{fill:none;stroke:#C4A380;stroke-width:5;stroke-miterlimit:10;}
</style>
<rect x="3941.1" y="-2562.6" class="st0" width="2052.9" height="1021.6"/>
<g id="Layer_2">
</g>
<g id="Layer_3">
</g>
<g id="Layer_1_1_">
	<g>
		<path class="st1" d="M109.6,217.5c-2.1,1.3-4.2,2.5-6.2,3.7c-6.2-3.7-12.4-7.4-18.6-11.1c-1,0.6-2,1.2-3.1,1.8
			c21.9,13.1,43.7,26.2,65.5,39.2c0.7-0.5,1.4-0.9,2.1-1.3c0.6,0.3,1.1,0.7,1.8,1.1c-0.2,0.1-0.3,0.2-0.4,0.3
			c-3.3,2.2-6.7,4.4-10,6.6c-0.3,0.2-0.5,0.2-0.8,0c-0.4-0.3-0.9-0.5-1.4-0.9c0.7-0.5,1.4-0.9,2.1-1.4c-0.2-0.1-0.4-0.3-0.6-0.4
			c-11.1-6.7-22.1-13.3-33.2-19.9c-10.5-6.3-20.9-12.6-31.4-18.9c-0.5-0.3-0.8-0.3-1.3,0c-0.8,0.5-1.6,1-2.5,1.5
			c6.3,3.8,12.5,7.5,18.7,11.3c-0.2,0.1-0.4,0.3-0.5,0.3c-1.8,1.1-3.6,2.2-5.5,3.3c-0.3,0.2-0.6,0.2-0.9,0c-6.6-4-13.2-8-19.7-12
			c-0.1-0.1-0.2-0.2-0.4-0.3c0.2-0.1,0.4-0.2,0.5-0.3c8.3-4.8,16.7-9.7,25-14.5c0.4-0.2,0.7-0.2,1,0c6.4,3.8,12.8,7.6,19.1,11.4
			C109.2,217.2,109.4,217.3,109.6,217.5z M143.8,253.3c-0.2-0.2-0.4-0.3-0.6-0.4c-20.1-12.1-40.2-24.1-60.3-36.2
			c-1.4-0.9-2.8-1.7-4.3-2.6c-0.2-0.1-0.4-0.2-0.5-0.1c-0.5,0.3-1,0.6-1.6,0.9c0.3,0.2,0.4,0.3,0.6,0.4c7,4.2,13.9,8.4,20.9,12.6
			c14.6,8.8,29.1,17.5,43.7,26.3c0.1,0.1,0.2,0.1,0.3,0.2c0.1,0,0.3,0.1,0.4,0C142.8,253.9,143.2,253.6,143.8,253.3z M85.6,229.8
			c-0.2-0.1-0.3-0.2-0.5-0.3c-4.4-2.6-8.7-5.3-13.1-7.9c-1-0.6-2.1-1.3-3.1-1.9c-0.1-0.1-0.4-0.2-0.5-0.1c-0.5,0.3-1,0.6-1.6,0.9
			c5.8,3.5,11.4,6.9,17.1,10.3C84.5,230.5,85,230.2,85.6,229.8z M105.1,218.2c-5.7-3.4-11.3-6.7-16.9-10.1c-0.6,0.3-1.1,0.6-1.7,1
			c5.7,3.4,11.3,6.7,16.9,10.1C103.9,218.8,104.5,218.5,105.1,218.2z"/>
		<path class="st1" d="M217.8,210c0.2-0.1,0.3-0.2,0.4-0.3c1.6-1,3.2-2.1,4.7-3.1c0.3-0.2,0.6-0.2,0.9,0c1.7,1,3.4,2,5.1,2.9
			c0.8,0.4,1.6,0.8,2.5,1.2c1,0.4,2.1,0.5,3.2,0.2c0.5-0.2,0.9-0.4,1.3-0.7c0.7-0.5,0.7-1.2,0.2-1.8c-0.4-0.5-1-1-1.6-1.3
			c-1.5-0.8-2.9-1.7-4.4-2.5c-2.1-1.2-4.1-2.4-6.2-3.5c-0.1-0.1-0.3-0.1-0.4-0.2c0,0.1-0.1,0.1-0.1,0.2c0,0.9-0.4,1.7-1,2.4
			c-1.1,1.1-2.4,1.8-3.8,2.3c-2.2,0.8-4.3,0.8-6.6,0.3c-2.2-0.5-4.2-1.4-6.1-2.5c-10.3-5.9-20.6-11.9-30.9-17.8
			c-0.7-0.4-1.4-0.8-2.1-1.3c-0.8-0.5-1.5-1.1-2.3-1.8c-0.5-0.5-1-1-1.3-1.7c-0.4-0.9-0.4-1.7,0.1-2.6c0.4-0.6,0.9-1.1,1.4-1.5
			c1.9-1.4,4-2.1,6.3-2.2c0.2,0,0.3,0,0.5-0.1c-0.3-0.2-0.7-0.4-1.1-0.7c2.6-1.5,5-3,7.6-4.5c0.5,0.3,1,0.6,1.6,0.9
			c-0.6,0.4-1.2,0.7-1.8,1.1c0.2,0.1,0.3,0.2,0.5,0.3c4,2.3,8,4.6,12,6.8c12.9,7.4,25.8,14.7,38.7,22.1c1,0.6,1.9,1.2,2.7,2
			c1,0.9,1.7,2,2,3.3s0.1,2.5-0.7,3.5c-0.8,1.1-1.9,1.9-3.1,2.5c-1.6,0.9-3.4,1.3-5.2,1.4c-1.6,0.2-3.1,0.1-4.7,0
			c-1.5-0.2-3-0.5-4.5-1s-2.8-1.3-4.1-2.1C217.9,210.1,217.9,210.1,217.8,210z M178.7,175.6c-0.2,0-0.5,0-0.7,0
			c-1,0.1-1.9,0.3-2.8,0.9c-0.7,0.5-0.8,1.1-0.2,1.8c0.3,0.3,0.6,0.6,0.9,0.8c0.8,0.5,1.6,1,2.4,1.5c12.2,7,24.4,14,36.6,21
			c0.8,0.5,1.7,0.8,2.6,1.1c1.1,0.3,2.3,0.3,3.3-0.4c0.6-0.4,0.9-1,0.9-1.8c0-0.5-0.1-0.8-0.6-1.1c-13.5-7.7-27.1-15.5-40.6-23.2
			C180,175.7,179.4,175.4,178.7,175.6z M237.7,208.2c0,0,0.1,0,0.1-0.1c0-0.2,0-0.5-0.1-0.7c-0.1-0.9-0.6-1.6-1.2-2.3
			c-0.7-0.8-1.6-1.4-2.6-2c-2.4-1.4-4.8-2.7-7.2-4.1c-15-8.6-30-17.1-45-25.7c-0.2-0.1-0.3-0.2-0.5-0.3c-0.5,0.3-0.9,0.6-1.4,0.9
			c0.2,0.1,0.4,0.2,0.5,0.3c11.7,6.7,23.4,13.4,35,20c6.3,3.6,12.6,7.2,18.9,10.8c0.5,0.3,0.9,0.6,1.3,0.9
			C236.5,206.6,237.2,207.3,237.7,208.2z M217,204.7v-0.1c-0.1,0-0.2,0-0.3-0.1c-1.2-0.1-2.5-0.4-3.6-0.9c-0.9-0.4-1.8-0.8-2.7-1.3
			c-8.1-4.7-16.3-9.3-24.4-14c-3.6-2-7.1-4.1-10.7-6.1c-0.9-0.5-1.7-1.1-2.5-1.8c-0.5-0.4-0.9-1-1.1-1.6c0-0.1-0.1-0.2-0.1-0.3
			c-0.6,0.7-0.7,1.4-0.3,2.2c0.5,1,1.4,1.7,2.3,2.2c1.7,1.1,3.5,2.1,5.3,3.1c9.9,5.7,19.7,11.4,29.6,17c1.1,0.7,2.4,1.2,3.6,1.6
			c1.1,0.3,2.3,0.5,3.5,0.4C216.1,204.9,216.6,204.8,217,204.7z M220.9,210.1c2.1,1.6,6.2,2.6,8.5,2.2c-1.4-0.3-2.6-0.7-3.7-1.2
			c-1.2-0.6-2.3-1.2-3.4-1.8C221.8,209.5,221.4,209.8,220.9,210.1z"/>
		<path class="st1" d="M154.6,217.8c-4,2.5-7.9,5-11.9,7.4c0.2,0.1,0.4,0.2,0.5,0.3c6.3,3.7,12.6,7.5,18.9,11.2
			c1.1,0.6,2.2,1.2,3.4,1.3c1.4,0.2,2.7-0.1,3.8-0.9c1.1-0.8,1.1-1.7,0.2-2.7c-0.5-0.5-1.2-1-1.8-1.4c-3.2-1.9-6.4-3.8-9.6-5.7
			c-0.2-0.1-0.4-0.2-0.7-0.4c2.1-1.3,4.1-2.6,6.2-3.9c0.1,0.1,0.3,0.1,0.4,0.2c2,1.2,4,2.4,6,3.5c1.1,0.6,2,1.4,2.8,2.3
			c1.1,1.3,1.7,2.7,1.6,4.4c-0.1,1.3-0.7,2.4-1.6,3.3c-1.2,1.3-2.7,2.1-4.3,2.8c-2.6,1.1-5.3,1.4-8,1.2c-1.7-0.1-3.4-0.4-5-0.8
			c-1.3-0.4-2.6-1-3.8-1.7c-10.7-6.4-21.4-12.7-32.1-19.1c-0.9-0.5-1.8-1.1-2.5-1.9c-0.7-0.7-1.3-1.6-1.6-2.6
			c-0.5-1.6-0.3-3.2,0.7-4.6c0.6-0.9,1.4-1.6,2.3-2.2c2-1.3,4.2-2.1,6.6-2.4c2.9-0.4,5.7-0.2,8.5,0.5c1.4,0.3,2.7,0.8,4,1.6
			c2.7,1.6,5.4,3.2,8.2,4.8c2.8,1.7,5.7,3.3,8.5,5C154.3,217.6,154.4,217.7,154.6,217.8z M146.6,220.7c-0.2-0.2-0.4-0.3-0.6-0.4
			c-6.2-3.6-12.3-7.3-18.5-10.9c-0.8-0.5-1.7-0.8-2.6-1.1c-0.8-0.2-1.7-0.3-2.5-0.1c-0.9,0.2-1.7,0.6-2.4,1.2
			c-0.4,0.4-0.7,1.1-0.2,1.7c0.2,0.2,0.3,0.5,0.5,0.7c0.5,0.4,1,0.8,1.5,1.1c5.8,3.5,11.6,6.9,17.5,10.4c0.5,0.3,1.1,0.6,1.6,1
			C142.8,223.1,144.6,221.9,146.6,220.7z M117.2,212.9C117.2,212.9,117.1,212.9,117.2,212.9c-0.1,0.3-0.1,0.6-0.1,0.8
			c0.1,1,0.5,1.8,1.2,2.5c0.6,0.7,1.4,1.2,2.2,1.7c11.1,6.6,22.2,13.2,33.3,19.8c1.3,0.8,2.8,1.4,4.3,1.7c1.3,0.3,2.7,0.4,4.1,0.3
			c-0.1-0.1-0.2-0.1-0.3-0.2c-0.7-0.2-1.4-0.4-2.1-0.6c-1.2-0.4-2.2-1-3.3-1.6c-9.7-5.7-19.3-11.5-29-17.2c-2.3-1.4-4.6-2.7-6.8-4.1
			c-1.1-0.7-2.2-1.4-3-2.5C117.5,213.4,117.4,213.2,117.2,212.9z M124.9,207.2c0.1,0,0.3,0.1,0.4,0.1c1.8,0.3,3.5,1,5.1,1.9
			c4.5,2.7,9,5.3,13.5,8c1.3,0.8,2.5,1.5,3.8,2.2c0.1,0.1,0.4,0.2,0.5,0.1c0.5-0.3,0.9-0.6,1.5-0.9c-0.2-0.1-0.3-0.2-0.4-0.3
			c-5.2-3.1-10.5-6.2-15.7-9.3C130.8,207.6,127.9,207,124.9,207.2z M171.6,234.9c0.2-1.2-0.2-2.3-1-3.2c-0.6-0.7-1.2-1.3-2-1.7
			c-1.3-0.8-2.7-1.6-4-2.4c-0.8-0.5-1.6-0.9-2.4-1.4c-0.5,0.3-1,0.6-1.6,1c0.3,0.2,0.5,0.3,0.8,0.5c2.2,1.3,4.3,2.5,6.5,3.8
			C169.4,232.3,170.8,233.3,171.6,234.9z"/>
		<path class="st1" d="M187.5,197.2c-3.7,2.3-7.4,4.6-11.1,7c0.2,0.1,0.3,0.2,0.5,0.3c4,2.3,8,4.6,12,7c2.2,1.3,4.4,2.6,6.6,3.9
			c0.8,0.5,1.7,0.9,2.6,1.1c1.5,0.4,2.9,0.3,4.1-0.6c0.2-0.2,0.4-0.3,0.6-0.5c0.4-0.4,0.4-0.9,0.1-1.5c-0.2-0.5-0.6-0.8-1-1.1
			c-0.9-0.6-1.8-1.1-2.7-1.6c-2.7-1.6-5.4-3.1-8.1-4.7c-0.2-0.1-0.3-0.2-0.5-0.3c2-1.3,3.9-2.5,5.8-3.7c0.1,0,0.2,0.1,0.3,0.1
			c2,1.2,4,2.3,6,3.5c0.7,0.4,1.4,0.9,2.1,1.5c0.8,0.7,1.5,1.6,1.9,2.6c0.8,1.9,0.5,3.7-0.9,5.3c-1.2,1.4-2.8,2.3-4.5,2.9
			c-2,0.8-4.1,1-6.3,1c-2.5,0-4.8-0.4-7.1-1.3c-0.8-0.3-1.6-0.7-2.3-1.1c-10.5-6.1-21-12.2-31.5-18.4c-1-0.6-2-1.3-2.7-2.2
			c-0.7-0.8-1.3-1.7-1.5-2.8c-0.3-1.6,0.1-3,1.2-4.2c1.1-1.2,2.5-2,3.9-2.6c1.7-0.7,3.5-1.1,5.3-1.2c2.7-0.2,5.4,0.1,8,1
			c1.2,0.4,2.2,0.9,3.3,1.5c5.2,3,10.4,6,15.5,9C187.1,196.9,187.3,197,187.5,197.2z M179.9,199.8c-0.9-0.5-1.8-1-2.6-1.5
			c-5.3-3.1-10.6-6.1-15.9-9.2c-0.7-0.4-1.5-0.8-2.3-1.1c-0.9-0.3-1.9-0.4-2.9-0.2c-0.8,0.2-1.5,0.5-2.1,1.1
			c-0.5,0.5-0.5,1.1-0.1,1.7c0.1,0.1,0.2,0.2,0.3,0.3c0.5,0.5,1.1,0.9,1.7,1.3c6.1,3.5,12.2,7.1,18.2,10.6c0.3,0.2,0.6,0.2,0.9,0
			c1.5-0.9,2.9-1.8,4.4-2.8C179.5,200.1,179.7,200,179.9,199.8z M195.4,218v-0.1c-0.4-0.1-0.8-0.2-1.1-0.3c-1.5-0.4-3-1.1-4.3-1.9
			c-9.9-5.8-19.7-11.5-29.6-17.2c-1.9-1.1-3.9-2.2-5.8-3.4c-1.2-0.7-2.2-1.6-3-2.8h-0.1c0,0,0,0.1-0.1,0.1c0,0.1,0,0.2,0,0.3
			c0,1,0.4,1.8,1,2.5c0.6,0.8,1.4,1.3,2.3,1.8c10.9,6.3,21.7,12.6,32.5,19c1.5,0.9,3,1.5,4.7,1.8C193.1,218,194.3,218.1,195.4,218z
			 M182.8,198c-0.2-0.1-0.2-0.2-0.3-0.2c-5.3-3.1-10.6-6.2-15.9-9.2c-2.3-1.3-4.8-1.8-7.5-1.7c-0.1,0-0.2,0.1-0.3,0.1
			c1.2,0.2,2.4,0.6,3.5,1.1c0.7,0.3,1.4,0.7,2,1.1c4.6,2.7,9.3,5.4,13.9,8c0.9,0.5,1.9,1.1,2.8,1.6c0.2,0.1,0.3,0.2,0.5,0.1
			C181.9,198.6,182.4,198.3,182.8,198z M204.4,213.5c0-0.2,0.1-0.2,0.1-0.3c0-0.6-0.1-1.1-0.3-1.6c-0.5-1-1.2-1.8-2.1-2.4
			c-1-0.6-2-1.2-3-1.8c-1.2-0.7-2.3-1.4-3.5-2c-0.1-0.1-0.4-0.2-0.5-0.1c-0.5,0.2-0.9,0.5-1.3,0.9c0.2,0.1,0.4,0.2,0.5,0.3
			c2.2,1.3,4.5,2.6,6.7,3.9C202.3,211.1,203.6,212,204.4,213.5z"/>
		<path class="st1" d="M338.5,127.9c-2,1.3-3.9,2.6-5.9,3.8c-1.1-0.6-2.1-1.1-3.2-1.7c-5-2.7-10-5.4-15-8.1
			c-7.4-4-14.7-7.9-22.1-11.9c-0.8-0.4-1.6-0.7-2.4-1c-0.6-0.2-1.2-0.3-1.9-0.2c-0.4,0.1-0.8,0.2-1.2,0.5c-0.4,0.3-0.6,0.7-0.6,1.2
			c0,0.4,0.1,0.8,0.6,1c8.7,4.7,17.4,9.4,26.1,14c4.6,2.5,9.2,5,13.8,7.4c0.2,0.1,0.4,0.2,0.5,0.3c0.5-0.3,0.9-0.6,1.5-0.9
			c0.5,0.3,1,0.5,1.6,0.8c-2.5,1.7-5,3.3-7.4,4.9c-0.5-0.3-1-0.5-1.6-0.9c0.5-0.3,0.9-0.6,1.4-0.9c-0.1-0.1-0.2-0.2-0.3-0.2
			c-6.9-3.7-13.7-7.4-20.6-11.1c-9.6-5.2-19.2-10.4-28.8-15.5c-2.6-1.4-5.1-2.7-7.6-4.1c-0.3-0.2-0.5-0.2-0.8,0
			c-0.4,0.2-0.7,0.4-1.1,0.7c-0.5-0.3-1-0.5-1.5-0.8c0.1-0.1,0.2-0.2,0.3-0.2c1.9-1.1,3.7-2.2,5.6-3.3c0.3-0.2,0.5-0.1,0.7,0.1
			c4.6,2.5,9.3,5,13.9,7.5c0.7,0.3,1.3,0.7,2,1c0.1,0,0.2,0.1,0.3,0.1c0-0.1,0.1-0.1,0.1-0.1c-0.1-0.9,0.4-1.6,1.1-2.2
			c1.3-1.1,2.9-1.6,4.6-1.8c2.3-0.2,4.5,0.4,6.6,1.3c2,0.8,3.9,1.9,5.8,3c6.6,3.5,13.3,7.1,19.9,10.7c4.1,2.2,8.3,4.4,12.4,6.6
			c0.1,0.1,0.2,0.1,0.3,0.1c0.4-0.2,0.7-0.5,1.1-0.7c0.2-0.2,0.4-0.2,0.7,0C337.6,127.5,338,127.7,338.5,127.9z M266.2,104.5
			c0.2,0.1,0.4,0.2,0.6,0.3c5.2,2.8,10.3,5.6,15.5,8.3c12.3,6.7,24.7,13.3,37,20c1.4,0.8,2.9,1.5,4.3,2.3c0.2,0.1,0.3,0.2,0.5,0.1
			c0.3-0.2,0.6-0.4,1-0.7c-19.3-10.4-38.5-20.7-57.6-31.1c-0.3,0.2-0.6,0.4-1,0.6C266.4,104.4,266.3,104.4,266.2,104.5z M289.5,108
			c2.4,0.7,2.9,0.9,4.5,1.7c4,2.1,8,4.3,11.9,6.4c6.9,3.7,13.8,7.4,20.7,11.1c1.7,0.9,3.4,1.8,5.1,2.7c0.1,0.1,0.4,0.2,0.5,0.1
			c0.3-0.2,0.6-0.4,1-0.6c-0.2-0.1-0.3-0.2-0.4-0.3c-6.6-3.5-13.1-7-19.7-10.6c-5.8-3.1-11.6-6.2-17.4-9.3c-1.4-0.8-2.9-1.3-4.6-1.4
			C290.6,107.9,290.1,107.8,289.5,108z"/>
		<path class="st1" d="M225.3,161.6c-0.2,0.1-0.3,0.2-0.5,0.3c-1.5,0.9-3,1.8-4.4,2.7c-0.3,0.2-0.6,0.2-0.9,0
			c-1.8-1.1-3.7-2.1-5.5-3.1c-1.3-0.7-2.4-1.5-3.4-2.7c-0.6-0.7-1-1.4-1.1-2.3c-0.2-1.2,0.2-2.2,1-3.1c0.8-0.8,1.7-1.4,2.7-1.9
			c1.6-0.8,3.2-1.2,5-1.4c2.6-0.2,5.2,0.2,7.7,1.1c1.7,0.6,3.2,1.5,4.7,2.3c3.5,1.9,6.9,3.9,10.4,5.8c8.1,4.5,16.2,9,24.3,13.5
			c1,0.6,0.6,0.5,1.6,0c0.3-0.2,0.6-0.5,0.9-0.5s0.6,0.3,1,0.4c0.2,0.1,0.4,0.2,0.6,0.3c-0.3,0.3-5.5,3.8-6.7,4.5
			c-0.4-0.2-0.8-0.4-1.2-0.6c0,0.1-0.1,0.2,0,0.3c0,0.8-0.3,1.4-0.8,2c-0.5,0.5-1.1,1-1.7,1.3c-1.9,1.1-4,1.5-6.1,1.2
			c-1.2-0.1-2.4-0.4-3.6-0.8c-1.4-0.5-2.7-1.1-4-1.8c-3.6-2-7.2-4-10.7-6c-1-0.6-2-1.3-2.9-2.1c-0.6-0.5-1.1-1.1-1.4-1.8
			c-0.5-1-0.5-2,0.1-3.1c0.4-0.7,0.9-1.3,1.5-1.7c0.9-0.7,1.9-1.3,2.8-1.9c0.2-0.1,0.4-0.2,0.6-0.4c-0.2-0.1-0.3-0.2-0.4-0.3
			c-3.4-1.9-6.8-3.8-10.1-5.7c-1.5-0.9-3.1-1.7-4.6-2.6c-0.9-0.5-1.9-1-2.9-1.2c-0.8-0.2-1.6-0.2-2.4,0.2c-0.3,0.1-0.5,0.3-0.8,0.5
			c-0.3,0.3-0.4,0.7-0.1,1.1c0.2,0.3,0.5,0.7,0.9,0.9c0.5,0.4,1,0.7,1.5,1c3,1.7,5.9,3.3,8.9,5C224.9,161.4,225.1,161.4,225.3,161.6
			z M236.6,163.2c-0.6,0.4-1.2,0.8-1.8,1.1c-0.1,0.1-0.2,0.1-0.3,0.2c-0.8,0.7-0.8,1.4-0.1,2.1c0.5,0.4,1,0.8,1.6,1.2
			c5.8,3.3,11.6,6.5,17.4,9.8c0.6,0.3,1.3,0.6,1.9,0.9c0.5,0.2,1.1,0.3,1.7,0.4c0.7,0.1,1.4-0.1,1.9-0.6c0.5-0.4,0.6-1,0.6-1.6
			s-0.4-0.8-0.8-1c-6-3.4-12.1-6.8-18.1-10.1C239.4,164.8,238,164,236.6,163.2z M263.4,175.1c-0.3-0.2-0.5-0.3-0.7-0.4
			c-7.6-4.3-15.3-8.5-22.9-12.8c-5.1-2.9-10.3-5.7-15.4-8.6c-2.2-1.2-4.5-1.8-7-1.8c-0.1,0-0.2,0-0.3,0s-0.2,0-0.3,0
			c1.9,0.4,3.7,1.1,5.3,2.1c4,2.2,8,4.5,12,6.7c9.1,5.1,18.2,10.2,27.4,15.3c0.2,0.1,0.3,0.2,0.5,0.3
			C262.5,175.7,262.9,175.4,263.4,175.1z M231.6,167.6h-0.1c0,0.4,0,0.7,0.1,1c0.1,0.6,0.5,1,0.9,1.5c0.8,0.8,1.6,1.4,2.5,1.9
			c4.2,2.4,8.4,4.7,12.6,7.1c1.1,0.6,2.2,1.1,3.4,1.4c1.2,0.3,2.5,0.5,3.7,0.3c0.2,0,0.5-0.1,0.7-0.1v-0.1c-0.3,0-0.6-0.1-0.9-0.1
			c-1.8-0.3-3.4-0.9-5-1.8c-1.1-0.6-2.1-1.2-3.2-1.8c-3.7-2.1-7.5-4.2-11.2-6.3c-1-0.5-1.9-1.2-2.7-2
			C232.2,168.3,231.9,168,231.6,167.6z M211.3,156c-0.1,0.8,0.2,1.5,0.6,2.1c0.7,1,1.7,1.7,2.8,2.3c1.5,0.8,3,1.7,4.5,2.5
			c0.1,0.1,0.3,0.1,0.4,0.2c0.4-0.3,0.9-0.5,1.3-0.8c-0.2-0.1-0.4-0.2-0.6-0.3c-1.9-1.1-3.9-2.2-5.8-3.3
			C213.4,158,212.2,157.2,211.3,156z"/>
		<path class="st1" d="M190.2,222.9c0.6,0.3,1.1,0.7,1.7,1c-0.1,0.1-0.3,0.2-0.4,0.3c-3,2-6.1,4-9.1,6c-0.3,0.2-0.5,0.2-0.8,0
			c-0.4-0.3-0.9-0.5-1.3-0.8c0.7-0.4,1.2-0.8,1.9-1.3c-21.4-12.5-42.7-25-64-37.6c-0.6,0.3-1.1,0.6-1.6,0.9c-0.3,0.2-0.5,0.2-0.8,0
			c-0.4-0.3-0.8-0.5-1.2-0.7c0.3-0.3,6.6-4.1,8.2-4.9c0.2,0.1,0.3,0.2,0.5,0.3c10.7,6.3,21.4,12.5,32.1,18.8
			c10.8,6.3,21.5,12.6,32.3,18.9c0.4,0.2,0.7,0.2,1.1,0C189.3,223.5,189.7,223.2,190.2,222.9z M185.3,226.2
			c-0.2-0.2-0.4-0.3-0.6-0.3c-10.1-5.9-20.2-11.9-30.4-17.8c-9.7-5.7-19.4-11.4-29.1-17.1c-1.2-0.7-2.3-1.4-3.5-2
			c-0.1-0.1-0.4-0.2-0.5-0.1c-0.5,0.2-1,0.5-1.5,0.9c21.4,12.5,42.7,25,64,37.5C184.3,226.8,184.7,226.5,185.3,226.2z"/>
		<path class="st1" d="M277.1,150.8c0.1-0.1,0.2-0.1,0.2-0.2c1.4-0.9,2.9-1.8,4.3-2.8c0.3-0.2,0.5-0.1,0.7,0
			c2.9,1.6,5.8,3.2,8.7,4.8c0.9,0.5,1.8,1,2.8,1.2c0.7,0.2,1.5,0.3,2.2,0.1c0.4-0.1,0.8-0.3,1.2-0.5c0.6-0.4,0.7-1,0.2-1.5
			c-0.4-0.4-0.8-0.8-1.3-1.1c-0.9-0.5-1.7-1-2.6-1.5c-1.9-1-3.8-2.1-5.7-3.1c-2.5-1.3-5.2-2.1-8-2.3c-3.6-0.2-7.2-0.4-10.7-0.6
			c-1.9-0.1-3.9-0.3-5.8-0.9c-1.4-0.4-2.8-0.9-4.1-1.6c-2.3-1.2-4.5-2.5-6.8-3.7c-1-0.6-1.9-1.4-2.6-2.3c-0.5-0.6-0.8-1.3-0.9-2.1
			c-0.2-0.9,0.1-1.8,0.6-2.5c0.4-0.5,0.9-1,1.5-1.3c1.4-0.9,3-1.5,4.7-1.7c4.2-0.5,8.2,0.4,11.9,2.4c1.6,0.9,3.1,1.7,4.7,2.6
			c0.1,0.1,0.2,0.2,0.4,0.3c-1.6,1-3.2,2-4.8,3c-0.8-0.4-1.6-0.9-2.3-1.3c-2.3-1.3-4.6-2.6-7-3.8c-0.8-0.4-1.6-0.7-2.4-1
			c-0.8-0.3-1.7-0.3-2.5-0.1c-0.3,0.1-0.5,0.2-0.8,0.4c-0.6,0.4-0.7,1-0.2,1.5c0.4,0.4,0.8,0.8,1.2,1c1.7,1,3.3,1.9,5,2.8
			c1.3,0.7,2.5,1.4,3.8,2c2.1,0.9,4.3,1.5,6.6,1.6c2.6,0.1,5.3,0.3,7.9,0.5c1.3,0.1,2.7,0.2,4,0.2c2.1,0.1,4.1,0.6,6.1,1.4
			c2.2,0.8,4.2,2,6.3,3.1c1.3,0.7,2.6,1.4,3.8,2.2c1,0.6,1.8,1.3,2.5,2.2c0.6,0.8,1,1.6,1.1,2.5s-0.2,1.6-0.7,2.3
			c-0.6,0.7-1.3,1.3-2.1,1.7c-1.7,1-3.5,1.4-5.4,1.5c-3.8,0.2-7.3-0.7-10.6-2.5c-1.6-0.9-3.2-1.8-4.9-2.7
			C277.4,151,277.3,150.9,277.1,150.8z M250.7,132.6c-0.1,0.6,0.1,1.1,0.4,1.6c0.6,1,1.5,1.7,2.5,2.3c1.1,0.6,2.1,1.2,3.2,1.8
			c1.7,0.9,3.3,1.9,5.1,2.5c1.3,0.5,2.5,0.9,3.8,1.1c1.2,0.2,2.4,0.3,3.6,0.3c2.1,0.2,4.3,0.3,6.4,0.4c1.8,0.1,3.5,0.2,5.3,0.3
			c2.3,0.2,4.5,0.9,6.5,1.9c2.8,1.4,5.6,3,8.3,4.5c0.8,0.4,1.5,1,2.1,1.6c0.3,0.3,0.5,0.6,0.8,0.9c0-0.7-0.2-1.3-0.5-1.8
			c-0.5-0.9-1.2-1.5-2.1-2c-1.4-0.8-2.8-1.6-4.2-2.4c-1.9-1-3.7-2.1-5.8-2.8c-1.4-0.5-2.9-1-4.4-1.1c-1.4-0.1-2.8-0.2-4.2-0.3
			c-2.6-0.2-5.1-0.3-7.7-0.5c-1.4-0.1-2.8-0.1-4.2-0.4c-1.9-0.4-3.7-1.1-5.5-2c-2.1-1.1-4.1-2.2-6.2-3.4c-1-0.5-1.9-1.2-2.7-1.9
			C251.1,133.1,251,132.8,250.7,132.6z M256,128.5c0.2,0,0.3,0.1,0.5,0.1c1,0.2,1.9,0.4,2.8,0.9c1.2,0.6,2.4,1.2,3.5,1.8
			c1.4,0.8,2.8,1.6,4.3,2.3c0.1,0.1,0.3,0.2,0.4,0.1c0.4-0.2,0.8-0.4,1.1-0.7c-0.2-0.1-0.3-0.2-0.4-0.2c-1.5-0.8-2.9-1.6-4.4-2.4
			c-1.3-0.7-2.7-1.3-4.3-1.7C258.4,128.5,257.2,128.4,256,128.5z M291.7,155.1c-0.1,0-0.1,0-0.2-0.1c-1.5-0.3-2.9-0.9-4.3-1.6
			c-1-0.5-2-1.1-2.9-1.6c-1-0.6-2.1-1.1-3.1-1.7c-0.4,0.3-0.8,0.5-1.2,0.8c0.2,0.1,0.4,0.2,0.5,0.3c1.4,0.8,2.8,1.5,4.2,2.3
			c0.9,0.5,1.9,0.9,2.9,1.2C288.9,155.1,290.3,155.3,291.7,155.1z"/>
		<path class="st1" d="M234.3,196.2c-0.5-0.3-1-0.6-1.7-0.9c0.6-0.4,1.1-0.8,1.7-1.2c-0.2-0.1-0.3-0.2-0.5-0.3
			c-14.7-8.4-29.4-16.7-44.2-25.1c-0.4-0.2-0.7-0.3-1.1,0c-0.3,0.2-0.7,0.4-1.1,0.6c-0.1,0.1-0.3,0.1-0.4,0.1
			c-0.5-0.3-1-0.5-1.5-0.8c0.2-0.1,0.3-0.2,0.4-0.3c2.2-1.3,4.4-2.6,6.6-3.9c0.3-0.2,0.6-0.2,0.9,0c0.2,0.2,0.5,0.3,0.7,0.4
			c0-0.1,0.1-0.1,0.1-0.1c0-1.2,0.7-2.1,1.6-2.7c1.6-1.2,3.5-1.7,5.5-1.8c2.2,0,4.4,0.5,6.4,1.4c1,0.4,1.9,0.9,2.9,1.4
			c2,1.1,4,2.3,6,3.4c0.1,0.1,0.2,0.1,0.4,0.3c-1.9,1.1-3.7,2.2-5.5,3.4c-0.4-0.2-0.8-0.5-1.2-0.7c-2.8-1.6-5.7-3.2-8.5-4.8
			c-0.7-0.4-1.5-0.8-2.3-1c-0.7-0.3-1.5-0.4-2.3-0.2c-1,0.3-1.4,0.9-1.4,1.9c0,0.4,0.2,0.6,0.5,0.8c2.7,1.5,5.4,3.1,8.1,4.6
			c11.6,6.5,23.1,13.1,34.6,19.6c0.1,0.1,0.2,0.1,0.3,0.2c0.2,0.2,0.4,0.1,0.6,0c0.5-0.3,1-0.6,1.5-1c0.5,0.3,1.1,0.6,1.6,0.9
			C242.9,190.6,235.1,195.8,234.3,196.2z M237.1,192.3c-0.3-0.2-0.5-0.3-0.7-0.4c-13.5-7.7-27.1-15.4-40.6-23.1
			c-1.2-0.7-2.3-1.3-3.5-2c-0.1-0.1-0.4-0.2-0.5-0.1c-0.4,0.2-0.9,0.4-1.3,0.8c15.1,8.6,30.1,17.1,45.1,25.7
			C236.2,192.9,236.6,192.6,237.1,192.3z M212.7,167.4c-0.1-0.1-0.1-0.1-0.2-0.2c-2.4-1.3-4.8-2.7-7.2-4c-1.7-0.9-3.5-1.3-5.4-1.2
			c-0.2,0-0.4,0-0.6,0.2c1.7,0.3,3.2,1,4.6,1.8c2.3,1.3,4.6,2.6,6.9,3.9c0.2,0.1,0.3,0.2,0.5,0.3
			C211.8,167.9,212.2,167.7,212.7,167.4z"/>
		<path class="st1" d="M302.5,134.6c0.1-0.1,0.2-0.1,0.3-0.2c1.3-0.9,2.7-1.7,4-2.6c0.2-0.1,0.4-0.2,0.6-0.1
			c2.1,1.2,4.3,2.3,6.4,3.5c1.1,0.6,2,1.4,2.7,2.5c0.6,1,1,2,0.7,3.2c-0.2,0.8-0.6,1.5-1.3,2.1c-0.9,0.8-2,1.4-3.2,1.8
			c-1.8,0.6-3.7,0.7-5.5,0.7c-3-0.1-5.8-0.9-8.5-2.4c-9.5-5.2-19-10.4-28.6-15.6c-1.3-0.7-2.4-1.5-3.3-2.6c-0.5-0.6-0.9-1.3-1-2.1
			c-0.3-1.3,0.1-2.4,1-3.3c1.1-1.1,2.4-1.7,3.9-2.2c1.9-0.6,3.8-0.7,5.7-0.5c1.2,0.1,2.3,0.3,3.4,0.5c1.3,0.3,2.6,0.8,3.8,1.5
			c1.9,1,3.8,2,5.7,3.1c-0.1,0.1-0.2,0.2-0.3,0.3c-1.3,0.8-2.6,1.6-4,2.4c-0.3,0.2-0.5,0.2-0.8,0c-2.9-1.6-5.9-3.2-8.8-4.8
			c-0.9-0.5-1.9-0.9-3-1.1c-0.9-0.1-1.7,0-2.5,0.4c-0.2,0.1-0.4,0.2-0.6,0.4c-0.5,0.5-0.6,1-0.1,1.5c0.2,0.3,0.5,0.5,0.8,0.7
			c0.7,0.5,1.5,0.9,2.3,1.3c4.8,2.6,9.5,5.2,14.3,7.8c4.3,2.3,8.6,4.7,12.9,7c2.7,1.5,5.4,2.9,8.1,4.4c1.1,0.6,2.2,1.1,3.5,1.1
			c0.9,0,1.6-0.2,2.3-0.7c0.7-0.5,0.8-1.1,0.3-1.8c-0.2-0.3-0.5-0.5-0.8-0.7c-0.9-0.5-1.8-1.1-2.7-1.6c-2.4-1.3-4.9-2.6-7.3-4
			C302.8,134.8,302.7,134.8,302.5,134.6z M307.9,144.7c-0.1-0.1-0.1-0.1-0.1-0.1c-0.1,0-0.2-0.1-0.3-0.1c-1.4-0.3-2.8-0.9-4.1-1.6
			c-3.8-2-7.6-4.1-11.3-6.2c-7-3.8-14-7.6-21.1-11.5c-1.3-0.7-2.5-1.5-3.4-2.6c0,0-0.1,0-0.2-0.1c0,0.1,0,0.2,0,0.3
			c0.1,0.8,0.6,1.5,1.1,2c0.6,0.6,1.3,1.1,2,1.5c3.5,1.9,7,3.8,10.4,5.7c6,3.3,12,6.5,18,9.8c1.3,0.7,2.5,1.4,3.9,1.9
			C304.5,144.5,306.2,144.7,307.9,144.7z M315.2,141.2c0-0.6-0.1-1.1-0.4-1.5c-0.5-0.9-1.1-1.5-2-2c-1-0.6-2.1-1.2-3.1-1.8
			c-1.1-0.6-2.2-1.2-3.4-1.8c-0.4,0.3-0.7,0.5-1.1,0.8c0.2,0.1,0.3,0.2,0.4,0.2c1.9,1,3.8,2,5.7,3.1
			C312.7,138.9,314.2,139.6,315.2,141.2z M285.5,122.7c-0.2-0.1-0.3-0.2-0.5-0.3c-1.5-0.8-3-1.6-4.4-2.4c-1.7-0.9-3.4-1.6-5.3-1.8
			c-0.7-0.1-1.4-0.1-2.2-0.2c0.1,0.1,0.2,0.2,0.3,0.2c1.1,0.2,2.1,0.5,3.1,1c1.4,0.7,2.8,1.5,4.2,2.2c1,0.6,2.1,1.1,3.1,1.7
			c0.2,0.1,0.3,0.2,0.5,0.1C284.8,123.2,285.1,123,285.5,122.7z"/>
		<path class="st1" d="M277.2,166.1c0.5,0.3,1.1,0.6,1.7,0.9c-2.8,1.8-5.5,3.6-8.3,5.4c-0.5-0.3-1-0.6-1.6-0.9
			c0.5-0.4,1-0.7,1.6-1.1c-0.2-0.1-0.3-0.2-0.5-0.3c-4.5-2.5-9.1-5-13.6-7.6c-5.7-3.2-11.5-6.4-17.2-9.6c-4.1-2.3-8.2-4.6-12.3-6.9
			c-0.3-0.2-0.5-0.2-0.7,0c-0.3,0.2-0.7,0.4-1.1,0.6c-0.1,0.1-0.3,0.1-0.4,0.1c-0.5-0.2-0.9-0.5-1.5-0.8c0.6-0.4,1.1-0.7,1.7-1
			c-0.7-0.4-1.2-0.7-1.8-1c-1.9-1-3.7-2.1-5.6-3.1c-1-0.6-1.9-1.2-2.6-2.1c-0.5-0.6-0.9-1.2-1.1-2c-0.4-1.4-0.1-2.7,0.9-3.8
			c0.3-0.3,0.6-0.6,1-0.9c0.8-0.5,1.6-1,2.4-1.5c0.5,0.3,1,0.6,1.6,0.9c-0.5,0.3-1,0.6-1.4,0.8c-0.3,0.2-0.6,0.3-0.8,0.6
			c-0.5,0.4-0.5,0.9-0.2,1.4c0.3,0.4,0.7,0.8,1.1,1c1,0.6,2.1,1.2,3.1,1.8c2.7,1.5,5.4,3,8,4.5c0.2,0.1,0.3,0.2,0.5,0.3
			c0.7-0.4,1.5-0.8,2.2-1.3c0.3-0.2,0.6-0.2,0.9,0c0.3,0.2,0.7,0.4,1.1,0.6c-0.9,0.5-1.7,1-2.6,1.6c0.4,0.2,0.8,0.4,1.1,0.6
			c13,7.2,26,14.4,38.9,21.6c1.1,0.6,2.3,1.2,3.4,1.9c0.3,0.2,0.5,0.2,0.8,0C276.3,166.7,276.7,166.4,277.2,166.1z M215.2,135.8
			c0,0.2,0,0.2,0,0.3c0,0.7,0.3,1.4,0.8,1.9c0.6,0.8,1.5,1.4,2.4,1.9c2.7,1.5,5.3,3,8,4.5c4,2.2,8,4.5,12,6.7c4.5,2.5,9,5,13.6,7.5
			c5.3,3,10.7,5.9,16,8.9c1.3,0.7,2.5,1.4,3.8,2.1c0.4-0.3,0.9-0.5,1.3-0.8c-0.2-0.1-0.2-0.2-0.3-0.2c-6-3.3-11.9-6.6-17.9-9.9
			c-4-2.2-8.1-4.5-12.1-6.7c-4.1-2.3-8.2-4.6-12.4-6.9c-4-2.2-8-4.5-12-6.7C217.1,137.7,216,137,215.2,135.8z"/>
		<path class="st1" d="M279.7,164.5c0.6-0.4,1-0.7,1.6-1c-14.6-8.1-29.1-16.1-43.7-24.2c-0.6,0.3-1.1,0.6-1.7,1
			c-0.5-0.3-1-0.6-1.6-0.9c0.2-0.1,0.3-0.2,0.4-0.3c2-1.2,4-2.4,5.9-3.6c0.3-0.2,0.5-0.2,0.8,0c6.7,3.7,13.4,7.4,20.1,11.1
			c8,4.4,16,8.8,24,13.2c0.7,0.4,0.5,0.4,1.2,0c0.3-0.2,0.7-0.5,1-0.6c0.3,0,0.7,0.3,1,0.5c0.2,0.1,0.3,0.2,0.6,0.3
			c-0.1,0.1-0.2,0.2-0.3,0.3c-2.4,1.6-4.9,3.2-7.3,4.8c-0.3,0.2-0.5,0.2-0.8,0C280.6,164.9,280.2,164.7,279.7,164.5z M238.9,138.5
			c0.2,0.1,0.3,0.2,0.5,0.3c12.8,7.1,25.6,14.2,38.4,21.3c1.4,0.8,2.9,1.6,4.3,2.4c0.1,0.1,0.4,0.2,0.5,0.1c0.4-0.2,0.8-0.4,1.1-0.8
			c-14.5-8-29-16-43.5-24.1C239.8,138,239.4,138.2,238.9,138.5z"/>
		<path class="st1" d="M235.8,132.3c-0.1,0.1-0.2,0.1-0.3,0.2c-1.5,0.9-3,1.8-4.5,2.6c-0.2,0.1-0.4,0.2-0.7,0
			c-3.3-1.8-6.5-3.6-9.8-5.4c-0.1-0.1-0.2-0.1-0.4-0.3c0.1-0.1,0.3-0.2,0.4-0.3c1.4-0.8,2.9-1.7,4.3-2.5c0.3-0.2,0.5-0.2,0.8,0
			c3.3,1.8,6.6,3.6,9.9,5.5C235.6,132.2,235.6,132.3,235.8,132.3z M231.6,133c-0.2-0.1-0.3-0.2-0.4-0.2c-0.7-0.4-1.3-0.7-2-1.1
			c-1.6-0.9-3.1-1.7-4.7-2.6c-0.2-0.1-0.3-0.2-0.5-0.1c-0.4,0.2-0.7,0.4-1.1,0.7c0.2,0.1,0.3,0.2,0.5,0.3c1.1,0.6,2.2,1.2,3.3,1.8
			s2.2,1.2,3.3,1.8c0.2,0.1,0.3,0.2,0.5,0.1C230.9,133.4,231.2,133.2,231.6,133z"/>
	</g>
	<g class="st2">
		<path class="st3" d="M109.6,342.3c-2.1,1.3-4.2,2.5-6.2,3.7c-6.2-3.7-12.4-7.4-18.6-11.1c-1,0.6-2,1.2-3.1,1.8
			c21.9,13.1,43.7,26.2,65.5,39.2c0.7-0.5,1.4-0.9,2.1-1.3c0.6,0.3,1.1,0.7,1.8,1.1c-0.2,0.1-0.3,0.2-0.4,0.3
			c-3.3,2.2-6.7,4.4-10,6.6c-0.3,0.2-0.5,0.2-0.8,0c-0.4-0.3-0.9-0.5-1.4-0.9c0.7-0.5,1.4-0.9,2.1-1.4c-0.2-0.1-0.4-0.3-0.6-0.4
			c-11.1-6.7-22.1-13.3-33.2-19.9c-10.5-6.3-20.9-12.6-31.4-18.9c-0.5-0.3-0.8-0.3-1.3,0c-0.8,0.5-1.6,1-2.5,1.5
			c6.3,3.8,12.5,7.5,18.7,11.3c-0.2,0.1-0.4,0.3-0.5,0.3c-1.8,1.1-3.6,2.2-5.5,3.3c-0.3,0.2-0.6,0.2-0.9,0c-6.6-4-13.2-8-19.7-12
			c-0.1-0.1-0.2-0.2-0.4-0.3c0.2-0.1,0.4-0.2,0.5-0.3c8.3-4.8,16.7-9.7,25-14.5c0.4-0.2,0.7-0.2,1,0c6.4,3.8,12.8,7.6,19.1,11.4
			C109.1,342,109.3,342.1,109.6,342.3z M143.8,378.1c-0.2-0.2-0.4-0.3-0.6-0.4c-20.1-12.1-40.2-24.1-60.3-36.2
			c-1.4-0.9-2.8-1.7-4.3-2.6c-0.2-0.1-0.4-0.2-0.5-0.1c-0.5,0.3-1,0.6-1.6,0.9c0.3,0.2,0.4,0.3,0.6,0.4c7,4.2,13.9,8.4,20.9,12.6
			c14.6,8.8,29.1,17.5,43.7,26.3c0.1,0.1,0.2,0.1,0.3,0.2c0.1,0,0.3,0.1,0.4,0C142.8,378.8,143.2,378.4,143.8,378.1z M85.6,354.6
			c-0.2-0.1-0.3-0.2-0.5-0.3c-4.4-2.6-8.7-5.3-13.1-7.9c-1-0.6-2.1-1.3-3.1-1.9c-0.1-0.1-0.4-0.2-0.5-0.1c-0.5,0.3-1,0.6-1.6,0.9
			c5.8,3.5,11.4,6.9,17.1,10.3C84.5,355.3,85,355,85.6,354.6z M105,343c-5.7-3.4-11.3-6.7-16.9-10.1c-0.6,0.3-1.1,0.6-1.7,1
			c5.7,3.4,11.3,6.7,16.9,10.1C103.9,343.6,104.4,343.3,105,343z"/>
		<path class="st3" d="M217.8,334.8c0.2-0.1,0.3-0.2,0.4-0.3c1.6-1,3.2-2.1,4.7-3.1c0.3-0.2,0.6-0.2,0.9,0c1.7,1,3.4,2,5.1,2.9
			c0.8,0.4,1.6,0.8,2.5,1.2c1,0.4,2.1,0.5,3.2,0.2c0.5-0.2,0.9-0.4,1.3-0.7c0.7-0.5,0.7-1.2,0.2-1.8c-0.4-0.5-1-1-1.6-1.3
			c-1.5-0.8-2.9-1.7-4.4-2.5c-2.1-1.2-4.1-2.4-6.2-3.5c-0.1-0.1-0.3-0.1-0.4-0.2c0,0.1-0.1,0.1-0.1,0.2c0,0.9-0.4,1.7-1,2.4
			c-1.1,1.1-2.4,1.8-3.8,2.3c-2.2,0.8-4.3,0.8-6.6,0.3c-2.2-0.5-4.2-1.4-6.1-2.5c-10.3-5.9-20.6-11.9-30.9-17.8
			c-0.7-0.4-1.4-0.8-2.1-1.3c-0.8-0.5-1.5-1.1-2.3-1.8c-0.5-0.5-1-1-1.3-1.7c-0.4-0.9-0.4-1.7,0.1-2.6c0.4-0.6,0.9-1.1,1.4-1.5
			c1.9-1.4,4-2.1,6.3-2.2c0.2,0,0.3,0,0.5-0.1c-0.3-0.2-0.7-0.4-1.1-0.7c2.6-1.5,5-3,7.6-4.5c0.5,0.3,1,0.6,1.6,0.9
			c-0.6,0.4-1.2,0.7-1.8,1.1c0.2,0.1,0.3,0.2,0.5,0.3c4,2.3,8,4.6,12,6.8c12.9,7.4,25.8,14.7,38.7,22.1c1,0.6,1.9,1.2,2.7,2
			c1,0.9,1.7,2,2,3.3s0.1,2.5-0.7,3.5c-0.8,1.1-1.9,1.9-3.1,2.5c-1.6,0.9-3.4,1.3-5.2,1.4c-1.6,0.2-3.1,0.1-4.7,0
			c-1.5-0.2-3-0.5-4.5-1s-2.8-1.3-4.1-2.1C217.9,335,217.9,334.9,217.8,334.8z M178.7,300.4c-0.2,0-0.5,0-0.7,0
			c-1,0.1-1.9,0.3-2.8,0.9c-0.7,0.5-0.8,1.1-0.2,1.8c0.3,0.3,0.6,0.6,0.9,0.8c0.8,0.5,1.6,1,2.4,1.5c12.2,7,24.4,14,36.6,21
			c0.8,0.5,1.7,0.8,2.6,1.1c1.1,0.3,2.3,0.3,3.3-0.4c0.6-0.4,0.9-1,0.9-1.8c0-0.5-0.1-0.8-0.6-1.1c-13.5-7.7-27.1-15.5-40.6-23.2
			C180,300.5,179.4,300.3,178.7,300.4z M237.7,333c0,0,0.1,0,0.1-0.1c0-0.2,0-0.5-0.1-0.7c-0.1-0.9-0.6-1.6-1.2-2.3
			c-0.7-0.8-1.6-1.4-2.6-2c-2.4-1.4-4.8-2.7-7.2-4.1c-15-8.6-30-17.1-45-25.7c-0.2-0.1-0.3-0.2-0.5-0.3c-0.5,0.3-0.9,0.6-1.4,0.9
			c0.2,0.1,0.4,0.2,0.5,0.3c11.7,6.7,23.4,13.4,35,20c6.3,3.6,12.6,7.2,18.9,10.8c0.5,0.3,0.9,0.6,1.3,0.9
			C236.5,331.4,237.2,332.1,237.7,333z M217,329.5v-0.1c-0.1,0-0.2,0-0.3-0.1c-1.2-0.1-2.5-0.4-3.6-0.9c-0.9-0.4-1.8-0.8-2.7-1.3
			c-8.1-4.7-16.3-9.3-24.4-14c-3.6-2-7.1-4.1-10.7-6.1c-0.9-0.5-1.7-1.1-2.5-1.8c-0.5-0.4-0.9-1-1.1-1.6c0-0.1-0.1-0.2-0.1-0.3
			c-0.6,0.7-0.7,1.4-0.3,2.2c0.5,1,1.4,1.7,2.3,2.2c1.7,1.1,3.5,2.1,5.3,3.1c9.9,5.7,19.7,11.4,29.6,17c1.1,0.7,2.4,1.2,3.6,1.6
			c1.1,0.3,2.3,0.5,3.5,0.4C216.1,329.7,216.5,329.6,217,329.5z M220.9,334.9c2.1,1.6,6.2,2.6,8.5,2.2c-1.4-0.3-2.6-0.7-3.7-1.2
			c-1.2-0.6-2.3-1.2-3.4-1.8C221.8,334.3,221.4,334.6,220.9,334.9z"/>
		<path class="st3" d="M154.6,342.6c-4,2.5-7.9,5-11.9,7.4c0.2,0.1,0.4,0.2,0.5,0.3c6.3,3.7,12.6,7.5,18.9,11.2
			c1.1,0.6,2.2,1.2,3.4,1.3c1.4,0.2,2.7-0.1,3.8-0.9s1.1-1.7,0.2-2.7c-0.5-0.5-1.2-1-1.8-1.4c-3.2-1.9-6.4-3.8-9.6-5.7
			c-0.2-0.1-0.4-0.2-0.7-0.4c2.1-1.3,4.1-2.6,6.2-3.9c0.1,0.1,0.3,0.1,0.4,0.2c2,1.2,4,2.4,6,3.5c1.1,0.6,2,1.4,2.8,2.3
			c1.1,1.3,1.7,2.7,1.6,4.4c-0.1,1.3-0.7,2.4-1.6,3.3c-1.2,1.3-2.7,2.1-4.3,2.8c-2.6,1.1-5.3,1.4-8,1.2c-1.7-0.1-3.4-0.4-5-0.8
			c-1.3-0.4-2.6-1-3.8-1.7c-10.7-6.4-21.4-12.7-32.1-19.1c-0.9-0.5-1.8-1.1-2.5-1.9c-0.7-0.7-1.3-1.6-1.6-2.6
			c-0.5-1.6-0.3-3.2,0.7-4.6c0.6-0.9,1.4-1.6,2.3-2.2c2-1.3,4.2-2.1,6.6-2.4c2.9-0.4,5.7-0.2,8.5,0.5c1.4,0.3,2.7,0.8,4,1.6
			c2.7,1.6,5.4,3.2,8.2,4.8c2.8,1.7,5.7,3.3,8.5,5C154.2,342.4,154.3,342.5,154.6,342.6z M146.5,345.5c-0.2-0.2-0.4-0.3-0.6-0.4
			c-6.2-3.6-12.3-7.3-18.5-10.9c-0.8-0.5-1.7-0.8-2.6-1.1c-0.8-0.2-1.7-0.3-2.5-0.1c-0.9,0.2-1.7,0.6-2.4,1.2
			c-0.4,0.4-0.7,1.1-0.2,1.7c0.2,0.2,0.3,0.5,0.5,0.7c0.5,0.4,1,0.8,1.5,1.1c5.8,3.5,11.6,6.9,17.5,10.4c0.5,0.3,1.1,0.6,1.6,1
			C142.8,347.9,144.6,346.7,146.5,345.5z M117.2,337.7C117.1,337.7,117.1,337.8,117.2,337.7c-0.1,0.3-0.1,0.6-0.1,0.8
			c0.1,1,0.5,1.8,1.2,2.5c0.6,0.7,1.4,1.2,2.2,1.7c11.1,6.6,22.2,13.2,33.3,19.8c1.3,0.8,2.8,1.4,4.3,1.7c1.3,0.3,2.7,0.4,4.1,0.3
			c-0.1-0.1-0.2-0.1-0.3-0.2c-0.7-0.2-1.4-0.4-2.1-0.6c-1.2-0.4-2.2-1-3.3-1.6c-9.7-5.7-19.3-11.5-29-17.2c-2.3-1.4-4.6-2.7-6.8-4.1
			c-1.1-0.7-2.2-1.4-3-2.5C117.5,338.2,117.3,338,117.2,337.7z M124.8,332c0.1,0,0.3,0.1,0.4,0.1c1.8,0.3,3.5,1,5.1,1.9
			c4.5,2.7,9,5.3,13.5,8c1.3,0.8,2.5,1.5,3.8,2.2c0.1,0.1,0.4,0.2,0.5,0.1c0.5-0.3,0.9-0.6,1.5-0.9c-0.2-0.1-0.3-0.2-0.4-0.3
			c-5.2-3.1-10.5-6.2-15.7-9.3C130.8,332.4,127.9,331.8,124.8,332z M171.6,359.7c0.2-1.2-0.2-2.3-1-3.2c-0.6-0.7-1.2-1.3-2-1.7
			c-1.3-0.8-2.7-1.6-4-2.4c-0.8-0.5-1.6-0.9-2.4-1.4c-0.5,0.3-1,0.6-1.6,1c0.3,0.2,0.5,0.3,0.8,0.5c2.2,1.3,4.3,2.5,6.5,3.8
			C169.4,357.1,170.8,358.1,171.6,359.7z"/>
		<path class="st3" d="M187.5,322c-3.7,2.3-7.4,4.6-11.1,7c0.2,0.1,0.3,0.2,0.5,0.3c4,2.3,8,4.6,12,7c2.2,1.3,4.4,2.6,6.6,3.9
			c0.8,0.5,1.7,0.9,2.6,1.1c1.5,0.4,2.9,0.3,4.1-0.6c0.2-0.2,0.4-0.3,0.6-0.5c0.4-0.4,0.4-0.9,0.1-1.5c-0.2-0.5-0.6-0.8-1-1.1
			c-0.9-0.6-1.8-1.1-2.7-1.6c-2.7-1.6-5.4-3.1-8.1-4.7c-0.2-0.1-0.3-0.2-0.5-0.3c2-1.3,3.9-2.5,5.8-3.7c0.1,0,0.2,0.1,0.3,0.1
			c2,1.2,4,2.3,6,3.5c0.7,0.4,1.4,0.9,2.1,1.5c0.8,0.7,1.5,1.6,1.9,2.6c0.8,1.9,0.5,3.7-0.9,5.3c-1.2,1.4-2.8,2.3-4.5,2.9
			c-2,0.8-4.1,1-6.3,1c-2.5,0-4.8-0.4-7.1-1.3c-0.8-0.3-1.6-0.7-2.3-1.1c-10.5-6.1-21-12.2-31.5-18.4c-1-0.6-2-1.3-2.7-2.2
			c-0.7-0.8-1.3-1.7-1.5-2.8c-0.3-1.6,0.1-3,1.2-4.2c1.1-1.2,2.5-2,3.9-2.6c1.7-0.7,3.5-1.1,5.3-1.2c2.7-0.2,5.4,0.1,8,1
			c1.2,0.4,2.2,0.9,3.3,1.5c5.2,3,10.4,6,15.5,9C187.1,321.7,187.2,321.8,187.5,322z M179.9,324.7c-0.9-0.5-1.8-1-2.6-1.5
			c-5.3-3.1-10.6-6.1-15.9-9.2c-0.7-0.4-1.5-0.8-2.3-1.1c-0.9-0.3-1.9-0.4-2.9-0.2c-0.8,0.2-1.5,0.5-2.1,1.1
			c-0.5,0.5-0.5,1.1-0.1,1.7c0.1,0.1,0.2,0.2,0.3,0.3c0.5,0.5,1.1,0.9,1.7,1.3c6.1,3.5,12.2,7.1,18.2,10.6c0.3,0.2,0.6,0.2,0.9,0
			c1.5-0.9,2.9-1.8,4.4-2.8C179.5,324.9,179.6,324.8,179.9,324.7z M195.4,342.8v-0.1c-0.4-0.1-0.8-0.2-1.1-0.3
			c-1.5-0.4-3-1.1-4.3-1.9c-9.9-5.8-19.7-11.5-29.6-17.2c-1.9-1.1-3.9-2.2-5.8-3.4c-1.2-0.7-2.2-1.6-3-2.8h-0.1c0,0,0,0.1-0.1,0.1
			c0,0.1,0,0.2,0,0.3c0,1,0.4,1.8,1,2.5c0.6,0.8,1.4,1.3,2.3,1.8c10.9,6.3,21.7,12.6,32.5,19c1.5,0.9,3,1.5,4.7,1.8
			C193.1,342.8,194.3,342.9,195.4,342.8z M182.8,322.8c-0.2-0.1-0.2-0.2-0.3-0.2c-5.3-3.1-10.6-6.2-15.9-9.2
			c-2.3-1.3-4.8-1.8-7.5-1.7c-0.1,0-0.2,0.1-0.3,0.1c1.2,0.2,2.4,0.6,3.5,1.1c0.7,0.3,1.4,0.7,2,1.1c4.6,2.7,9.3,5.4,13.9,8
			c0.9,0.5,1.9,1.1,2.8,1.6c0.2,0.1,0.3,0.2,0.5,0.1C181.9,323.4,182.3,323.1,182.8,322.8z M204.4,338.4c0-0.2,0.1-0.2,0.1-0.3
			c0-0.6-0.1-1.1-0.3-1.6c-0.5-1-1.2-1.8-2.1-2.4c-1-0.6-2-1.2-3-1.8c-1.2-0.7-2.3-1.4-3.5-2c-0.1-0.1-0.4-0.2-0.5-0.1
			c-0.5,0.2-0.9,0.5-1.3,0.9c0.2,0.1,0.4,0.2,0.5,0.3c2.2,1.3,4.5,2.6,6.7,3.9C202.3,335.9,203.6,336.8,204.4,338.4z"/>
		<path class="st3" d="M338.5,252.8c-2,1.3-3.9,2.6-5.9,3.8c-1.1-0.6-2.1-1.1-3.2-1.7c-5-2.7-10-5.4-15-8.1
			c-7.4-4-14.7-7.9-22.1-11.9c-0.8-0.4-1.6-0.7-2.4-1c-0.6-0.2-1.2-0.3-1.9-0.2c-0.4,0.1-0.8,0.2-1.2,0.5c-0.4,0.3-0.6,0.7-0.6,1.2
			c0,0.4,0.1,0.8,0.6,1c8.7,4.7,17.4,9.4,26.1,14c4.6,2.5,9.2,5,13.8,7.4c0.2,0.1,0.4,0.2,0.5,0.3c0.5-0.3,0.9-0.6,1.5-0.9
			c0.5,0.3,1,0.5,1.6,0.8c-2.5,1.7-5,3.3-7.4,4.9c-0.5-0.3-1-0.5-1.6-0.9c0.5-0.3,0.9-0.6,1.4-0.9c-0.1-0.1-0.2-0.2-0.3-0.2
			c-6.9-3.7-13.7-7.4-20.6-11.1c-9.6-5.2-19.2-10.4-28.8-15.5c-2.6-1.4-5.1-2.7-7.6-4.1c-0.3-0.2-0.5-0.2-0.8,0
			c-0.4,0.2-0.7,0.4-1.1,0.7c-0.5-0.3-1-0.5-1.5-0.8c0.1-0.1,0.2-0.2,0.3-0.2c1.9-1.1,3.7-2.2,5.6-3.3c0.3-0.2,0.5-0.1,0.7,0.1
			c4.6,2.5,9.3,5,13.9,7.5c0.7,0.3,1.3,0.7,2,1c0.1,0,0.2,0.1,0.3,0.1c0-0.1,0.1-0.1,0.1-0.1c-0.1-0.9,0.4-1.6,1.1-2.2
			c1.3-1.1,2.9-1.6,4.6-1.8c2.3-0.2,4.5,0.4,6.6,1.3c2,0.8,3.9,1.9,5.8,3c6.6,3.5,13.3,7.1,19.9,10.7c4.1,2.2,8.3,4.4,12.4,6.6
			c0.1,0.1,0.2,0.1,0.3,0.1c0.4-0.2,0.7-0.5,1.1-0.7c0.2-0.2,0.4-0.2,0.7,0C337.6,252.3,338,252.5,338.5,252.8z M266.2,229.3
			c0.2,0.1,0.4,0.2,0.6,0.3c5.2,2.8,10.3,5.6,15.5,8.3c12.3,6.7,24.7,13.3,37,20c1.4,0.8,2.9,1.5,4.3,2.3c0.2,0.1,0.3,0.2,0.5,0.1
			c0.3-0.2,0.6-0.4,1-0.7c-19.3-10.4-38.5-20.7-57.6-31.1c-0.3,0.2-0.6,0.4-1,0.6C266.3,229.2,266.3,229.2,266.2,229.3z
			 M289.4,232.8c2.4,0.7,2.9,0.9,4.5,1.7c4,2.1,8,4.3,11.9,6.4c6.9,3.7,13.8,7.4,20.7,11.1c1.7,0.9,3.4,1.8,5.1,2.7
			c0.1,0.1,0.4,0.2,0.5,0.1c0.3-0.2,0.6-0.4,1-0.6c-0.2-0.1-0.3-0.2-0.4-0.3c-6.6-3.5-13.1-7-19.7-10.6c-5.8-3.1-11.6-6.2-17.4-9.3
			c-1.4-0.8-2.9-1.3-4.6-1.4C290.6,232.7,290,232.6,289.4,232.8z"/>
		<path class="st3" d="M225.3,286.4c-0.2,0.1-0.3,0.2-0.5,0.3c-1.5,0.9-3,1.8-4.4,2.7c-0.3,0.2-0.6,0.2-0.9,0
			c-1.8-1.1-3.7-2.1-5.5-3.1c-1.3-0.7-2.4-1.5-3.4-2.7c-0.6-0.7-1-1.4-1.1-2.3c-0.2-1.2,0.2-2.2,1-3.1c0.8-0.8,1.7-1.4,2.7-1.9
			c1.6-0.8,3.2-1.2,5-1.4c2.6-0.2,5.2,0.2,7.7,1.1c1.7,0.6,3.2,1.5,4.7,2.3c3.5,1.9,6.9,3.9,10.4,5.8c8.1,4.5,16.2,9,24.3,13.5
			c1,0.6,0.6,0.5,1.6,0c0.3-0.2,0.6-0.5,0.9-0.5s0.6,0.3,1,0.4c0.2,0.1,0.4,0.2,0.6,0.3c-0.3,0.3-5.5,3.8-6.7,4.5
			c-0.4-0.2-0.8-0.4-1.2-0.6c0,0.1-0.1,0.2,0,0.3c0,0.8-0.3,1.4-0.8,2c-0.5,0.5-1.1,1-1.7,1.3c-1.9,1.1-4,1.5-6.1,1.2
			c-1.2-0.1-2.4-0.4-3.6-0.8c-1.4-0.5-2.7-1.1-4-1.8c-3.6-2-7.2-4-10.7-6c-1-0.6-2-1.3-2.9-2.1c-0.6-0.5-1.1-1.1-1.4-1.8
			c-0.5-1-0.5-2,0.1-3.1c0.4-0.7,0.9-1.3,1.5-1.7c0.9-0.7,1.9-1.3,2.8-1.9c0.2-0.1,0.4-0.2,0.6-0.4c-0.2-0.1-0.3-0.2-0.4-0.3
			c-3.4-1.9-6.8-3.8-10.1-5.7c-1.5-0.9-3.1-1.7-4.6-2.6c-0.9-0.5-1.9-1-2.9-1.2c-0.8-0.2-1.6-0.2-2.4,0.2c-0.3,0.1-0.5,0.3-0.8,0.5
			c-0.3,0.3-0.4,0.7-0.1,1.1c0.2,0.3,0.5,0.7,0.9,0.9c0.5,0.4,1,0.7,1.5,1c3,1.7,5.9,3.3,8.9,5C224.9,286.2,225,286.3,225.3,286.4z
			 M236.6,288.1c-0.6,0.4-1.2,0.8-1.8,1.1c-0.1,0.1-0.2,0.1-0.3,0.2c-0.8,0.7-0.8,1.4-0.1,2.1c0.5,0.4,1,0.8,1.6,1.2
			c5.8,3.3,11.6,6.5,17.4,9.8c0.6,0.3,1.3,0.6,1.9,0.9c0.5,0.2,1.1,0.3,1.7,0.4c0.7,0.1,1.4-0.1,1.9-0.6c0.5-0.4,0.6-1,0.6-1.6
			s-0.4-0.8-0.8-1c-6-3.4-12.1-6.8-18.1-10.1C239.3,289.6,238,288.8,236.6,288.1z M263.4,299.9c-0.3-0.2-0.5-0.3-0.7-0.4
			c-7.6-4.3-15.3-8.5-22.9-12.8c-5.1-2.9-10.3-5.7-15.4-8.6c-2.2-1.2-4.5-1.8-7-1.8c-0.1,0-0.2,0-0.3,0s-0.2,0-0.3,0
			c1.9,0.4,3.7,1.1,5.3,2.1c4,2.2,8,4.5,12,6.7c9.1,5.1,18.2,10.2,27.4,15.3c0.2,0.1,0.3,0.2,0.5,0.3
			C262.5,300.5,262.9,300.2,263.4,299.9z M231.6,292.4h-0.1c0,0.4,0,0.7,0.1,1c0.1,0.6,0.5,1,0.9,1.5c0.8,0.8,1.6,1.4,2.5,1.9
			c4.2,2.4,8.4,4.7,12.6,7.1c1.1,0.6,2.2,1.1,3.4,1.4s2.5,0.5,3.7,0.3c0.2,0,0.5-0.1,0.7-0.1v-0.1c-0.3,0-0.6-0.1-0.9-0.1
			c-1.8-0.3-3.4-0.9-5-1.8c-1.1-0.6-2.1-1.2-3.2-1.8c-3.7-2.1-7.5-4.2-11.2-6.3c-1-0.5-1.9-1.2-2.7-2
			C232.2,293.1,231.9,292.8,231.6,292.4z M211.3,280.8c-0.1,0.8,0.2,1.5,0.6,2.1c0.7,1,1.7,1.7,2.8,2.3c1.5,0.8,3,1.7,4.5,2.5
			c0.1,0.1,0.3,0.1,0.4,0.2c0.4-0.3,0.9-0.5,1.3-0.8c-0.2-0.1-0.4-0.2-0.6-0.3c-1.9-1.1-3.9-2.2-5.8-3.3
			C213.4,282.8,212.2,282,211.3,280.8z"/>
		<path class="st3" d="M190.2,347.7c0.6,0.3,1.1,0.7,1.7,1c-0.1,0.1-0.3,0.2-0.4,0.3c-3,2-6.1,4-9.1,6c-0.3,0.2-0.5,0.2-0.8,0
			c-0.4-0.3-0.9-0.5-1.3-0.8c0.7-0.4,1.2-0.8,1.9-1.3c-21.4-12.5-42.7-25-64-37.6c-0.6,0.3-1.1,0.6-1.6,0.9c-0.3,0.2-0.5,0.2-0.8,0
			c-0.4-0.3-0.8-0.5-1.2-0.7c0.3-0.3,6.6-4.1,8.2-4.9c0.2,0.1,0.3,0.2,0.5,0.3c10.7,6.3,21.4,12.5,32.1,18.8
			c10.8,6.3,21.5,12.6,32.3,18.9c0.4,0.2,0.7,0.2,1.1,0C189.2,348.3,189.7,348.1,190.2,347.7z M185.3,351c-0.2-0.2-0.4-0.3-0.6-0.3
			c-10.1-5.9-20.2-11.9-30.4-17.8c-9.7-5.7-19.4-11.4-29.1-17.1c-1.2-0.7-2.3-1.4-3.5-2c-0.1-0.1-0.4-0.2-0.5-0.1
			c-0.5,0.2-1,0.5-1.5,0.9c21.4,12.5,42.7,25,64,37.5C184.2,351.7,184.7,351.3,185.3,351z"/>
		<path class="st3" d="M277.1,275.6c0.1-0.1,0.2-0.1,0.2-0.2c1.4-0.9,2.9-1.8,4.3-2.8c0.3-0.2,0.5-0.1,0.7,0
			c2.9,1.6,5.8,3.2,8.7,4.8c0.9,0.5,1.8,1,2.8,1.2c0.7,0.2,1.5,0.3,2.2,0.1c0.4-0.1,0.8-0.3,1.2-0.5c0.6-0.4,0.7-1,0.2-1.5
			c-0.4-0.4-0.8-0.8-1.3-1.1c-0.9-0.5-1.7-1-2.6-1.5c-1.9-1-3.8-2.1-5.7-3.1c-2.5-1.3-5.2-2.1-8-2.3c-3.6-0.2-7.2-0.4-10.7-0.6
			c-1.9-0.1-3.9-0.3-5.8-0.9c-1.4-0.4-2.8-0.9-4.1-1.6c-2.3-1.2-4.5-2.5-6.8-3.7c-1-0.6-1.9-1.4-2.6-2.3c-0.5-0.6-0.8-1.3-0.9-2.1
			c-0.2-0.9,0.1-1.8,0.6-2.5c0.4-0.5,0.9-1,1.5-1.3c1.4-0.9,3-1.5,4.7-1.7c4.2-0.5,8.2,0.4,11.9,2.4c1.6,0.9,3.1,1.7,4.7,2.6
			c0.1,0.1,0.2,0.2,0.4,0.3c-1.6,1-3.2,2-4.8,3c-0.8-0.4-1.6-0.9-2.3-1.3c-2.3-1.3-4.6-2.6-7-3.8c-0.8-0.4-1.6-0.7-2.4-1
			c-0.8-0.3-1.7-0.3-2.5-0.1c-0.3,0.1-0.5,0.2-0.8,0.4c-0.6,0.4-0.7,1-0.2,1.5c0.4,0.4,0.8,0.8,1.2,1c1.7,1,3.3,1.9,5,2.8
			c1.3,0.7,2.5,1.4,3.8,2c2.1,0.9,4.3,1.5,6.6,1.6c2.6,0.1,5.3,0.3,7.9,0.5c1.3,0.1,2.7,0.2,4,0.2c2.1,0.1,4.1,0.6,6.1,1.4
			c2.2,0.8,4.2,2,6.3,3.1c1.3,0.7,2.6,1.4,3.8,2.2c1,0.6,1.8,1.3,2.5,2.2c0.6,0.8,1,1.6,1.1,2.5s-0.2,1.6-0.7,2.3
			c-0.6,0.7-1.3,1.3-2.1,1.7c-1.7,1-3.5,1.4-5.4,1.5c-3.8,0.2-7.3-0.7-10.6-2.5c-1.6-0.9-3.2-1.8-4.9-2.7
			C277.4,275.8,277.3,275.7,277.1,275.6z M250.7,257.4c-0.1,0.6,0.1,1.1,0.4,1.6c0.6,1,1.5,1.7,2.5,2.3c1.1,0.6,2.1,1.2,3.2,1.8
			c1.7,0.9,3.3,1.9,5.1,2.5c1.3,0.5,2.5,0.9,3.8,1.1c1.2,0.2,2.4,0.3,3.6,0.3c2.1,0.2,4.3,0.3,6.4,0.4c1.8,0.1,3.5,0.2,5.3,0.3
			c2.3,0.2,4.5,0.9,6.5,1.9c2.8,1.4,5.6,3,8.3,4.5c0.8,0.4,1.5,1,2.1,1.6c0.3,0.3,0.5,0.6,0.8,0.9c0-0.7-0.2-1.3-0.5-1.8
			c-0.5-0.9-1.2-1.5-2.1-2c-1.4-0.8-2.8-1.6-4.2-2.4c-1.9-1-3.7-2.1-5.8-2.8c-1.4-0.5-2.9-1-4.4-1.1c-1.4-0.1-2.8-0.2-4.2-0.3
			c-2.6-0.2-5.1-0.3-7.7-0.5c-1.4-0.1-2.8-0.1-4.2-0.4c-1.9-0.4-3.7-1.1-5.5-2c-2.1-1.1-4.1-2.2-6.2-3.4c-1-0.5-1.9-1.2-2.7-1.9
			C251.1,257.9,250.9,257.6,250.7,257.4z M255.9,253.3c0.2,0,0.3,0.1,0.5,0.1c1,0.2,1.9,0.4,2.8,0.9c1.2,0.6,2.4,1.2,3.5,1.8
			c1.4,0.8,2.8,1.6,4.3,2.3c0.1,0.1,0.3,0.2,0.4,0.1c0.4-0.2,0.8-0.4,1.1-0.7c-0.2-0.1-0.3-0.2-0.4-0.2c-1.5-0.8-2.9-1.6-4.4-2.4
			c-1.3-0.7-2.7-1.3-4.3-1.7C258.3,253.3,257.1,253.2,255.9,253.3z M291.7,280c-0.1,0-0.1,0-0.2-0.1c-1.5-0.3-2.9-0.9-4.3-1.6
			c-1-0.5-2-1.1-2.9-1.6c-1-0.6-2.1-1.1-3.1-1.7c-0.4,0.3-0.8,0.5-1.2,0.8c0.2,0.1,0.4,0.2,0.5,0.3c1.4,0.8,2.8,1.5,4.2,2.3
			c0.9,0.5,1.9,0.9,2.9,1.2C288.9,279.9,290.3,280.1,291.7,280z"/>
		<path class="st3" d="M234.3,321c-0.5-0.3-1-0.6-1.7-0.9c0.6-0.4,1.1-0.8,1.7-1.2c-0.2-0.1-0.3-0.2-0.5-0.3
			c-14.7-8.4-29.4-16.7-44.2-25.1c-0.4-0.2-0.7-0.3-1.1,0c-0.3,0.2-0.7,0.4-1.1,0.6c-0.1,0.1-0.3,0.1-0.4,0.1
			c-0.5-0.3-1-0.5-1.5-0.8c0.2-0.1,0.3-0.2,0.4-0.3c2.2-1.3,4.4-2.6,6.6-3.9c0.3-0.2,0.6-0.2,0.9,0c0.2,0.2,0.5,0.3,0.7,0.4
			c0-0.1,0.1-0.1,0.1-0.1c0-1.2,0.7-2.1,1.6-2.7c1.6-1.2,3.5-1.7,5.5-1.8c2.2,0,4.4,0.5,6.4,1.4c1,0.4,1.9,0.9,2.9,1.4
			c2,1.1,4,2.3,6,3.4c0.1,0.1,0.2,0.1,0.4,0.3c-1.9,1.1-3.7,2.2-5.5,3.4c-0.4-0.2-0.8-0.5-1.2-0.7c-2.8-1.6-5.7-3.2-8.5-4.8
			c-0.7-0.4-1.5-0.8-2.3-1c-0.7-0.3-1.5-0.4-2.3-0.2c-1,0.3-1.4,0.9-1.4,1.9c0,0.4,0.2,0.6,0.5,0.8c2.7,1.5,5.4,3.1,8.1,4.6
			c11.6,6.5,23.1,13.1,34.6,19.6c0.1,0.1,0.2,0.1,0.3,0.2c0.2,0.2,0.4,0.1,0.6,0c0.5-0.3,1-0.6,1.5-1c0.5,0.3,1.1,0.6,1.6,0.9
			C242.9,315.4,235.1,320.6,234.3,321z M237.1,317.1c-0.3-0.2-0.5-0.3-0.7-0.4c-13.5-7.7-27.1-15.4-40.6-23.1
			c-1.2-0.7-2.3-1.3-3.5-2c-0.1-0.1-0.4-0.2-0.5-0.1c-0.4,0.2-0.9,0.4-1.3,0.8c15.1,8.6,30.1,17.1,45.1,25.7
			C236.2,317.7,236.6,317.4,237.1,317.1z M212.7,292.2c-0.1-0.1-0.1-0.1-0.2-0.2c-2.4-1.3-4.8-2.7-7.2-4c-1.7-0.9-3.5-1.3-5.4-1.2
			c-0.2,0-0.4,0-0.6,0.2c1.7,0.3,3.2,1,4.6,1.8c2.3,1.3,4.6,2.6,6.9,3.9c0.2,0.1,0.3,0.2,0.5,0.3
			C211.8,292.7,212.2,292.5,212.7,292.2z"/>
		<path class="st3" d="M302.5,259.5c0.1-0.1,0.2-0.1,0.3-0.2c1.3-0.9,2.7-1.7,4-2.6c0.2-0.1,0.4-0.2,0.6-0.1
			c2.1,1.2,4.3,2.3,6.4,3.5c1.1,0.6,2,1.4,2.7,2.5c0.6,1,1,2,0.7,3.2c-0.2,0.8-0.6,1.5-1.3,2.1c-0.9,0.8-2,1.4-3.2,1.8
			c-1.8,0.6-3.7,0.7-5.5,0.7c-3-0.1-5.8-0.9-8.5-2.4c-9.5-5.2-19-10.4-28.6-15.6c-1.3-0.7-2.4-1.5-3.3-2.6c-0.5-0.6-0.9-1.3-1-2.1
			c-0.3-1.3,0.1-2.4,1-3.3c1.1-1.1,2.4-1.7,3.9-2.2c1.9-0.6,3.8-0.7,5.7-0.5c1.2,0.1,2.3,0.3,3.4,0.5c1.3,0.3,2.6,0.8,3.8,1.5
			c1.9,1,3.8,2,5.7,3.1c-0.1,0.1-0.2,0.2-0.3,0.3c-1.3,0.8-2.6,1.6-4,2.4c-0.3,0.2-0.5,0.2-0.8,0c-2.9-1.6-5.9-3.2-8.8-4.8
			c-0.9-0.5-1.9-0.9-3-1.1c-0.9-0.1-1.7,0-2.5,0.4c-0.2,0.1-0.4,0.2-0.6,0.4c-0.5,0.5-0.6,1-0.1,1.5c0.2,0.3,0.5,0.5,0.8,0.7
			c0.7,0.5,1.5,0.9,2.3,1.3c4.8,2.6,9.5,5.2,14.3,7.8c4.3,2.3,8.6,4.7,12.9,7c2.7,1.5,5.4,2.9,8.1,4.4c1.1,0.6,2.2,1.1,3.5,1.1
			c0.9,0,1.6-0.2,2.3-0.7c0.7-0.5,0.8-1.1,0.3-1.8c-0.2-0.3-0.5-0.5-0.8-0.7c-0.9-0.5-1.8-1.1-2.7-1.6c-2.4-1.3-4.9-2.6-7.3-4
			C302.8,259.7,302.7,259.6,302.5,259.5z M307.9,269.5c-0.1-0.1-0.1-0.1-0.1-0.1c-0.1,0-0.2-0.1-0.3-0.1c-1.4-0.3-2.8-0.9-4.1-1.6
			c-3.8-2-7.6-4.1-11.3-6.2c-7-3.8-14-7.6-21.1-11.5c-1.3-0.7-2.5-1.5-3.4-2.6c0,0-0.1,0-0.2-0.1c0,0.1,0,0.2,0,0.3
			c0.1,0.8,0.6,1.5,1.1,2c0.6,0.6,1.3,1.1,2,1.5c3.5,1.9,7,3.8,10.4,5.7c6,3.3,12,6.5,18,9.8c1.3,0.7,2.5,1.4,3.9,1.9
			C304.5,269.3,306.1,269.5,307.9,269.5z M315.2,266c0-0.6-0.1-1.1-0.4-1.5c-0.5-0.9-1.1-1.5-2-2c-1-0.6-2.1-1.2-3.1-1.8
			c-1.1-0.6-2.2-1.2-3.4-1.8c-0.4,0.3-0.7,0.5-1.1,0.8c0.2,0.1,0.3,0.2,0.4,0.2c1.9,1,3.8,2,5.7,3.1
			C312.7,263.7,314.2,264.4,315.2,266z M285.5,247.5c-0.2-0.1-0.3-0.2-0.5-0.3c-1.5-0.8-3-1.6-4.4-2.4c-1.7-0.9-3.4-1.6-5.3-1.8
			c-0.7-0.1-1.4-0.1-2.2-0.2c0.1,0.1,0.2,0.2,0.3,0.2c1.1,0.2,2.1,0.5,3.1,1c1.4,0.7,2.8,1.5,4.2,2.2c1,0.6,2.1,1.1,3.1,1.7
			c0.2,0.1,0.3,0.2,0.5,0.1C284.8,248,285.1,247.8,285.5,247.5z"/>
		<path class="st3" d="M277.1,291c0.5,0.3,1.1,0.6,1.7,0.9c-2.8,1.8-5.5,3.6-8.3,5.4c-0.5-0.3-1-0.6-1.6-0.9c0.5-0.4,1-0.7,1.6-1.1
			c-0.2-0.1-0.3-0.2-0.5-0.3c-4.5-2.5-9.1-5-13.6-7.6c-5.7-3.2-11.5-6.4-17.2-9.6c-4.1-2.3-8.2-4.6-12.3-6.9c-0.3-0.2-0.5-0.2-0.7,0
			c-0.3,0.2-0.7,0.4-1.1,0.6c-0.1,0.1-0.3,0.1-0.4,0.1c-0.5-0.2-0.9-0.5-1.5-0.8c0.6-0.4,1.1-0.7,1.7-1c-0.7-0.4-1.2-0.7-1.8-1
			c-1.9-1-3.7-2.1-5.6-3.1c-1-0.6-1.9-1.2-2.6-2.1c-0.5-0.6-0.9-1.2-1.1-2c-0.4-1.4-0.1-2.7,0.9-3.8c0.3-0.3,0.6-0.6,1-0.9
			c0.8-0.5,1.6-1,2.4-1.5c0.5,0.3,1,0.6,1.6,0.9c-0.5,0.3-1,0.6-1.4,0.8c-0.3,0.2-0.6,0.3-0.8,0.6c-0.5,0.4-0.5,0.9-0.2,1.4
			c0.3,0.4,0.7,0.8,1.1,1c1,0.6,2.1,1.2,3.1,1.8c2.7,1.5,5.4,3,8,4.5c0.2,0.1,0.3,0.2,0.5,0.3c0.7-0.4,1.5-0.8,2.2-1.3
			c0.3-0.2,0.6-0.2,0.9,0c0.3,0.2,0.7,0.4,1.1,0.6c-0.9,0.5-1.7,1-2.6,1.6c0.4,0.2,0.8,0.4,1.1,0.6c13,7.2,26,14.4,38.9,21.6
			c1.1,0.6,2.3,1.2,3.4,1.9c0.3,0.2,0.5,0.2,0.8,0C276.3,291.5,276.7,291.2,277.1,291z M215.2,260.6c0,0.2,0,0.2,0,0.3
			c0,0.7,0.3,1.4,0.8,1.9c0.6,0.8,1.5,1.4,2.4,1.9c2.7,1.5,5.3,3,8,4.5c4,2.2,8,4.5,12,6.7c4.5,2.5,9,5,13.6,7.5
			c5.3,3,10.7,5.9,16,8.9c1.3,0.7,2.5,1.4,3.8,2.1c0.4-0.3,0.9-0.5,1.3-0.8c-0.2-0.1-0.2-0.2-0.3-0.2c-6-3.3-11.9-6.6-17.9-9.9
			c-4-2.2-8.1-4.5-12.1-6.7c-4.1-2.3-8.2-4.6-12.4-6.9c-4-2.2-8-4.5-12-6.7C217.1,262.5,216,261.8,215.2,260.6z"/>
		<path class="st3" d="M279.7,289.3c0.6-0.4,1-0.7,1.6-1c-14.6-8.1-29.1-16.1-43.7-24.2c-0.6,0.3-1.1,0.6-1.7,1
			c-0.5-0.3-1-0.6-1.6-0.9c0.2-0.1,0.3-0.2,0.4-0.3c2-1.2,4-2.4,5.9-3.6c0.3-0.2,0.5-0.2,0.8,0c6.7,3.7,13.4,7.4,20.1,11.1
			c8,4.4,16,8.8,24,13.2c0.7,0.4,0.5,0.4,1.2,0c0.3-0.2,0.7-0.5,1-0.6c0.3,0,0.7,0.3,1,0.5c0.2,0.1,0.3,0.2,0.6,0.3
			c-0.1,0.1-0.2,0.2-0.3,0.3c-2.4,1.6-4.9,3.2-7.3,4.8c-0.3,0.2-0.5,0.2-0.8,0C280.6,289.7,280.2,289.5,279.7,289.3z M238.9,263.3
			c0.2,0.1,0.3,0.2,0.5,0.3c12.8,7.1,25.6,14.2,38.4,21.3c1.4,0.8,2.9,1.6,4.3,2.4c0.1,0.1,0.4,0.2,0.5,0.1c0.4-0.2,0.8-0.4,1.1-0.8
			c-14.5-8-29-16-43.5-24.1C239.7,262.8,239.4,263,238.9,263.3z"/>
		<path class="st3" d="M235.7,257.2c-0.1,0.1-0.2,0.1-0.3,0.2c-1.5,0.9-3,1.8-4.5,2.6c-0.2,0.1-0.4,0.2-0.7,0
			c-3.3-1.8-6.5-3.6-9.8-5.4c-0.1-0.1-0.2-0.1-0.4-0.3c0.1-0.1,0.3-0.2,0.4-0.3c1.4-0.8,2.9-1.7,4.3-2.5c0.3-0.2,0.5-0.2,0.8,0
			c3.3,1.8,6.6,3.6,9.9,5.5C235.5,257,235.6,257.1,235.7,257.2z M231.6,257.8c-0.2-0.1-0.3-0.2-0.4-0.2c-0.7-0.4-1.3-0.7-2-1.1
			c-1.6-0.9-3.1-1.7-4.7-2.6c-0.2-0.1-0.3-0.2-0.5-0.1c-0.4,0.2-0.7,0.4-1.1,0.7c0.2,0.1,0.3,0.2,0.5,0.3c1.1,0.6,2.2,1.2,3.3,1.8
			c1.1,0.6,2.2,1.2,3.3,1.8c0.2,0.1,0.3,0.2,0.5,0.1C230.8,258.3,231.2,258,231.6,257.8z"/>
	</g>
	<g>
		<g>
			<g>
				<line class="st4" x1="338.5" y1="135.4" x2="338.5" y2="141.4"/>
				<line class="st5" x1="338.5" y1="143.3" x2="338.5" y2="185.8"/>
				<line class="st6" x1="338.5" y1="186.7" x2="338.5" y2="238.6"/>
				<line class="st4" x1="338.5" y1="239.6" x2="338.5" y2="245.6"/>
			</g>
		</g>
		<g>
			<g>
				<line class="st4" x1="62.3" y1="226.4" x2="62.3" y2="227.9"/>
				<line class="st7" x1="62.3" y1="230.4" x2="62.3" y2="279"/>
				<line class="st8" x1="62.3" y1="280.3" x2="62.3" y2="333.8"/>
				<line class="st4" x1="62.3" y1="335.1" x2="62.3" y2="336.6"/>
			</g>
		</g>
		<g>
			<g>
				<line class="st4" x1="62.3" y1="189" x2="62.3" y2="190.5"/>
				<line class="st9" x1="62.3" y1="191.6" x2="62.3" y2="211.7"/>
				<line class="st4" x1="62.3" y1="212.2" x2="62.3" y2="213.7"/>
			</g>
		</g>
		<g>
			<g>
				<line class="st4" x1="269.1" y1="182" x2="269.1" y2="188"/>
				<line class="st10" x1="269.1" y1="189" x2="269.1" y2="215.1"/>
				<line class="st4" x1="269.1" y1="217" x2="269.1" y2="223"/>
			</g>
		</g>
		<g>
			<g>
				<line class="st4" x1="269.1" y1="74.3" x2="269.1" y2="80.3"/>
				<line class="st11" x1="269.1" y1="80.5" x2="269.1" y2="88.2"/>
				<line class="st4" x1="269.1" y1="88.8" x2="269.1" y2="94.8"/>
			</g>
		</g>
		<g>
			<g>
				<line class="st4" x1="140" y1="264.7" x2="140" y2="270.7"/>
				<line class="st12" x1="140" y1="277" x2="140" y2="317"/>
				<line class="st13" x1="140" y1="317.8" x2="140" y2="370.4"/>
				<line class="st4" x1="140" y1="371.1" x2="140" y2="377.1"/>
			</g>
		</g>
	</g>
	<g class="st14">
		<g>
			<ellipse class="st15" cx="62" cy="301.3" rx="8.9" ry="4.4"/>
			<ellipse class="st15" cx="62" cy="300.4" rx="3.8" ry="1.7"/>
		</g>
		<g>
			<ellipse class="st15" cx="140" cy="337.7" rx="8.9" ry="4.4"/>
			<ellipse class="st15" cx="140" cy="336.8" rx="3.8" ry="1.7"/>
		</g>
		<g>
			<ellipse class="st15" cx="338" cy="214.8" rx="8.9" ry="4.4"/>
			<ellipse class="st15" cx="338" cy="214" rx="3.8" ry="1.7"/>
		</g>
		<g>
			<ellipse class="st15" cx="269" cy="194" rx="8.9" ry="4.4"/>
			<ellipse class="st15" cx="269" cy="193.1" rx="3.8" ry="1.7"/>
		</g>
		<g>
			<path class="st15" d="M58.5,152h7v16.1c0,0-0.5,1.4-3.5,1.4s-3.5-1.4-3.5-1.4V152z"/>
			<path class="st15" d="M58.5,153.9c0,0,3.5,3,7,3"/>
			<path class="st15" d="M58.5,151.9c0,0,3.5,3,7,3"/>
			<path class="st15" d="M58.5,155.9c0,0,3.5,3,7,3"/>
			<path class="st15" d="M58.5,157.9c0,0,3.5,3,7,3"/>
			<path class="st15" d="M58.5,159.9c0,0,3.5,3,7,3"/>
			<path class="st15" d="M58.5,161.9c0,0,3.5,3,7,3"/>
			<path class="st15" d="M58.5,163.9c0,0,3.5,3,7,3"/>
			<ellipse class="st15" cx="62" cy="150.2" rx="8" ry="3"/>
			<ellipse class="st15" cx="62" cy="147.2" rx="8" ry="3"/>
		</g>
		<g>
			<path class="st15" d="M265.7,46h7v16.1c0,0-0.5,1.4-3.5,1.4s-3.5-1.4-3.5-1.4V46z"/>
			<path class="st15" d="M265.7,47.9c0,0,3.5,3,7,3"/>
			<path class="st15" d="M265.7,45.9c0,0,3.5,3,7,3"/>
			<path class="st15" d="M265.7,49.9c0,0,3.5,3,7,3"/>
			<path class="st15" d="M265.7,51.9c0,0,3.5,3,7,3"/>
			<path class="st15" d="M265.7,53.9c0,0,3.5,3,7,3"/>
			<path class="st15" d="M265.7,55.9c0,0,3.5,3,7,3"/>
			<path class="st15" d="M265.7,57.9c0,0,3.5,3,7,3"/>
			<ellipse class="st15" cx="269.2" cy="44.2" rx="8" ry="3"/>
			<ellipse class="st15" cx="269.2" cy="41.2" rx="8" ry="3"/>
		</g>
	</g>
	<line class="st16" x1="141.4" y1="408.9" x2="141.4" y2="632.4"/>
	<line class="st16" x1="272" y1="325.4" x2="272" y2="623"/>
	<polyline class="st16" points="62,630.6 62,367.1 141.4,408.9 338.5,283 338.5,283.1 338.5,620 	"/>
</g>
<image style="overflow:visible;" width="414" height="1129" xlink:href="background.png"  transform="matrix(1 0 0 1 523 -438.05)">
</image>
<g>
	<path class="st17" d="M1015-229c0-6.3,0-12.7,0-19c2.6,0.3,4.3-1.6,6.2-2.8c16.3-10.6,32.6-21.2,48.9-31.9
		c37.8-24.8,75.6-49.6,113.5-74.4c15.6-10.2,31.2-20.4,46.7-30.6c23.5-15.4,47-30.8,70.5-46.2c1.2-0.8,2.1-1.6,2.2-3.1
		c10,0,20,0,30,0c-1.8,3.9-5.9,5.2-9.1,7.3c-24.5,16.2-49.1,32.4-73.7,48.4c-25.4,16.6-51,33.1-76.4,49.7
		c-27.5,18-54.9,36.2-82.4,54.2c-23.5,15.4-47,30.6-70.5,46C1019.1-230.1,1017.3-228.9,1015-229z"/>
	<path class="st17" d="M1015-253c0-6,0-12,0-18c2,0.3,3.4-1,5-2c19.5-12.7,39-25.3,58.5-38c32.6-21.4,65.2-42.8,97.8-64.2
		c14.7-9.7,29.4-19.4,44.1-29c15-9.8,30.1-19.5,45.2-29.2c1.3-0.8,2.3-1.9,2.4-3.6c9.3,0,18.7,0,28,0c-0.1,2.3-2,2.9-3.5,3.9
		c-18.7,12.3-37.4,24.6-56.2,36.8c-23,14.9-46.1,29.6-69,44.6c-25.4,16.6-50.6,33.6-75.9,50.3c-23.4,15.4-47,30.6-70.5,46
		C1019.1-254.1,1017.3-252.9,1015-253z"/>
	<path class="st17" d="M1015-276c0-6.3,0-12.7,0-19c2,0.3,3.4-1,5-2c8.2-5.4,16.4-10.7,24.6-16.1c34.7-22.7,69.3-45.3,104-68
		c26.3-17.2,52.5-34.5,78.7-51.9c1.7-1.1,4.3-1.4,4.7-4c9.7,0,19.4,0,29,0c-0.3,2.9-2.9,3.5-4.8,4.7c-20.6,13.5-41.3,26.8-61.9,40.3
		c-34.3,22.5-68.6,45.1-102.9,67.6c-23.5,15.4-47.1,30.7-70.6,46C1019.1-277.1,1017.3-275.9,1015-276z"/>
	<path class="st17" d="M1015-300c0-6.3,0-12.7,0-19c1.8,0.2,3.1-0.8,4.5-1.7c6.5-4.3,13.1-8.5,19.6-12.8
		c15.8-10.4,31.6-20.9,47.4-31.2c14.9-9.7,29.8-19.4,44.7-29.1c16.8-11,33.7-21.9,50.4-33.1c4.6-3.1,10.1-5.1,13.3-10
		c9.7,0,19.4,0,29,0c-0.2,2.7-2.6,3.3-4.3,4.4c-11.7,7.8-23.5,15.6-35.4,23.3c-25.4,16.6-50.9,33.2-76.3,49.8
		c-29.2,19.1-58.3,38.2-87.5,57.4C1018.8-300.9,1017.1-299.9,1015-300z"/>
	<path class="st17" d="M1015-323c0-6.7,0-13.3,0-20c1.7-0.2,3.1-1.1,4.5-2c19.9-13,39.7-26.1,59.6-39.1
		c24.9-16.3,49.8-32.6,74.7-48.9c1.6-1.1,3.7-1.7,4.2-4c10,0,20,0,30,0c-0.2,1.1-0.9,1.7-1.7,2.3c-25.7,16.8-51.3,33.6-77,50.5
		c-29.6,19.4-59.1,38.7-88.7,58.1C1018.8-324.9,1017.3-323.3,1015-323z"/>
	<path class="st17" d="M1015-348c0-6.3,0-12.7,0-19c6.8-2.5,12.3-7.1,18.3-10.9c13.8-8.9,27.3-18.2,41.1-27.2
		c14.2-9.3,28.5-18.3,42.6-27.6c1.5-1,3.6-1.9,4-4.2c10,0,20,0,30,0c-0.1,1.3-1.2,1.9-2.2,2.5c-8.4,5.4-16.7,10.8-25,16.2
		c-16.8,11-33.6,21.9-50.3,33c-13.7,9-27.2,18.3-41.1,27.1C1026.8-354.6,1021.8-349.7,1015-348z"/>
	<path class="st18" d="M1429-420c-2-0.3-3.4,1-5,2c-27.9,18.3-55.8,36.6-83.8,54.9c-26.9,17.5-53.8,34.9-80.6,52.4
		c-29,19-57.9,38.3-87,57.3c-27,17.7-54.1,35.1-81.1,52.7c-22,14.3-43.9,28.8-65.8,43.3c-0.7,0.5-1.4,0.8-2.1,1.3
		c-1.3,1-2.8,1.6-3.9,0c-1.2-1.8,0.5-2.7,1.7-3.5c5.4-3.6,10.9-7,16.3-10.6c16-10.4,32-20.9,48-31.3c26.5-17.2,53.1-34.2,79.3-51.7
		c24.3-16.2,49-31.9,73.2-48.3c23.7-16,48-31.1,71.9-46.7c24.3-15.9,48.6-32,72.9-47.9c13.7-9,27.6-17.9,41.3-26.9
		c1.4-0.9,2.8-1.8,4.5-2C1429-423.3,1429-421.7,1429-420z"/>
	<path class="st18" d="M1015-180c2.5-1.3,5.1-2.4,7.4-4c32.5-21.3,65-42.7,97.6-64c29.6-19.4,59.3-38.7,89-58
		c26.2-17.1,52.3-34.2,78.4-51.2c26-17,52-34,78-51c12.5-8.2,25-16.4,37.4-24.7c1.6-1.1,3.7-1.7,4.2-4c2.3,0,4.6,0,7,0
		c-0.9,4.1-5,4.8-7.7,6.5c-22.3,14.8-44.8,29.3-67.2,43.9c-26.5,17.2-53,34.4-79.4,51.6c-22.9,15-45.7,30.3-68.6,45.3
		c-25.4,16.7-51,33.1-76.5,49.7c-26,17-51.9,34.2-77.8,51.3c-5.6,3.7-11.2,7.2-16.8,10.8c-1.6,1-3.2,1.8-5.1,1.7
		C1015-177.3,1015-178.7,1015-180z"/>
	<path class="st18" d="M1429-396c-7.1,2.6-12.9,7.5-19.1,11.5c-30.2,19.5-60.2,39.1-90.2,58.7c-24.7,16.2-49.4,32.5-74.1,48.7
		c-36.8,24.2-73.7,48.3-110.6,72.4c-24.8,16.2-49.6,32.4-74.4,48.5c-5.4,3.5-10.9,7-16.3,10.5c-1.2,0.8-2.5,2.2-3.7,0.2
		c-1-1.7,0.1-2.7,1.5-3.6c16.9-10.9,33.8-21.8,50.6-32.8c17.5-11.5,34.9-23.1,52.4-34.5c14.3-9.4,28.7-18.7,43-28
		c15.7-10.2,31.5-20.5,47.2-30.7c24.1-15.7,48.1-31.4,72.2-47.1c28.9-18.9,57.8-37.9,86.7-56.8c10.4-6.8,20.8-13.7,31.2-20.5
		c1.1-0.7,2.4-1,3.7-1.5C1429-399.3,1429-397.7,1429-396z"/>
	<path class="st18" d="M1015-205c2.5,0.2,4.4-1.3,6.3-2.6c28.9-18.9,57.9-37.7,86.9-56.6c22.5-14.7,45-29.5,67.5-44.3
		c24.9-16.3,49.8-32.5,74.6-48.8c31.1-20.4,62.2-40.8,93.4-61.2c7.5-4.9,15-9.8,22.5-14.7c1.5-1,3.4-1.6,3.8-3.7c2.3,0,4.6,0,7,0
		c-0.1,2.5-2.3,3.1-3.9,4.2c-27.4,18-54.8,35.9-82.2,53.8c-35.2,23-70.4,46.1-105.6,69.1c-26.7,17.5-53.5,34.9-80.2,52.4
		c-28.2,18.5-56.5,37-84.7,55.5c-1.7,1.1-3.4,2.1-5.5,2C1015-201.7,1015-203.3,1015-205z"/>
	<path class="st18" d="M1429-372c-7.1,2.6-12.9,7.5-19.1,11.5c-30.2,19.5-60.2,39-90.3,58.7c-24.4,16-48.7,32.4-73.1,48.4
		c-22.9,15-46.1,29.7-69,44.7c-23.7,15.4-47.2,31-70.8,46.5c-13.3,8.7-26.7,17.4-40.1,26.1c-0.7,0.5-1.4,0.9-2.1,1.3
		c-1.3,0.7-2.8,1.1-3.6-0.3c-1.2-2.1,1.1-2.5,2.1-3.2c12.7-8.5,25.5-16.9,38.3-25.3c13.6-8.9,27.3-17.7,41-26.6
		c27.7-18,55.5-36,83.1-54.1c24.4-16,48.7-32.4,73.1-48.4c23.9-15.7,48-31,72-46.6c18.4-12,36.6-24.2,54.9-36.3
		c1.1-0.7,2.4-1,3.7-1.5C1429-375.3,1429-373.7,1429-372z"/>
	<path class="st17" d="M1015-372c0-6.3,0-12.7,0-19c2.9-0.5,5.2-2.1,7.5-3.7c18.9-13.2,38.3-25.5,57.6-38.1c1.6-1,3.8-1.6,3.9-4.2
		c10,0,20,0,30,0c-0.4,2.1-2.3,2.7-3.8,3.7c-6.3,4.2-12.8,8.3-19.2,12.5c-23.6,15.5-47.1,31-70.7,46.4
		C1018.8-373.2,1017.2-371.7,1015-372z"/>
	<path class="st18" d="M1015-229c2.3,0.1,4.1-1.1,5.9-2.3c23.5-15.3,47-30.6,70.5-46c27.5-18,54.9-36.2,82.4-54.2
		c25.4-16.6,51-33.1,76.4-49.7c24.6-16.1,49.1-32.2,73.7-48.4c3.2-2.1,7.3-3.4,9.1-7.3c2.3,0,4.6,0,7,0c0,1.8-1.3,2.5-2.6,3.3
		c-12.2,8-24.4,16.1-36.6,24.1c-16.1,10.6-32.3,21.1-48.4,31.6c-24.6,16.1-49.3,32.1-73.9,48.2c-23.9,15.6-47.9,31.2-71.8,46.9
		c-25,16.4-49.8,33-75,49.2c-5.4,3.4-10.1,8.2-16.7,9.6C1015-225.7,1015-227.3,1015-229z"/>
	<path class="st17" d="M1015-396c0-13.7,0-27.3,0-41c20.7,0,41.3,0.1,62,0.1c-0.1,1.2-0.8,2.1-1.8,2.8c-17.5,11.6-35,23.2-52.6,34.7
		C1020.3-398,1018.1-395.8,1015-396z"/>
	<path class="st18" d="M1015-253c2.3,0.1,4.1-1.1,5.9-2.3c23.5-15.3,47-30.6,70.5-46c25.4-16.7,50.5-33.6,75.9-50.3
		c22.9-15,46-29.7,69-44.6c18.8-12.2,37.5-24.5,56.2-36.8c1.5-1,3.4-1.6,3.5-3.9c2.3,0,4.6,0,7,0c-0.1,1.5-1,2.3-2.2,3.1
		c-23.5,15.4-47,30.8-70.5,46.2c-15.6,10.2-31.2,20.4-46.7,30.6c-37.8,24.8-75.6,49.6-113.5,74.4c-16.3,10.7-32.6,21.3-48.9,31.9
		c-1.9,1.2-3.6,3.1-6.2,2.8C1015-249.7,1015-251.3,1015-253z"/>
	<path class="st18" d="M1429-251c-6.9,2.4-12.3,7.1-18.3,11c-28.9,18.7-57.6,37.6-86.4,56.4c-23.9,15.6-47.9,31.2-71.8,46.9
		c-25,16.4-50.1,32.7-75.1,49.1c-2.9,1.9-5.8,3.9-8.7,5.7c-1.3,0.8-2.9,1.5-4-0.2c-1.1-1.8,0.9-2.3,1.9-2.9c21-13.8,42-27.5,63-41.3
		c16.4-10.7,32.8-21.5,49.3-32.2c38-24.9,75.9-49.8,113.9-74.7c10.8-7.1,21.6-14.2,32.5-21.3c1.1-0.7,2.4-1,3.7-1.5
		C1429-254.3,1429-252.7,1429-251z"/>
	<path class="st18" d="M1015-276c2.3,0.1,4.1-1.1,5.9-2.3c23.5-15.4,47.1-30.6,70.6-46c34.3-22.5,68.6-45.1,102.9-67.6
		c20.6-13.5,41.3-26.8,61.9-40.3c1.8-1.2,4.5-1.8,4.8-4.7c2.3,0,4.6,0,7,0c-0.1,1.7-1.1,2.7-2.4,3.6c-15.1,9.7-30.2,19.4-45.2,29.2
		c-14.7,9.6-29.4,19.3-44.1,29c-32.6,21.4-65.2,42.8-97.8,64.2c-19.5,12.7-39,25.3-58.5,38c-1.5,1-2.9,2.3-5,2
		C1015-272.7,1015-274.3,1015-276z"/>
	<path class="st18" d="M1429-227c-9.1,4.2-17,10.3-25.4,15.7c-15.6,10.1-31.1,20.5-46.6,30.7c-15.7,10.3-31.4,20.5-47.2,30.7
		c-26.7,17.4-53.5,34.7-80.2,52.1c-13.1,8.5-26.1,17.2-39.1,25.7c-1.4,0.9-3.2,3-4.7,0.9c-1.5-2.1,1-3.1,2.4-4
		c21.8-14.3,43.7-28.5,65.5-42.8c17.4-11.4,34.6-22.9,52-34.2c15.2-9.9,30.5-19.5,45.6-29.6c16.8-11.2,34-22,50.7-33.4
		c8.7-6,17.2-12.5,26.9-16.8C1429-230.3,1429-228.7,1429-227z"/>
	<path class="st18" d="M1429-203c-10.7,5.7-20.5,12.9-30.6,19.4c-21,13.4-41.8,27.1-62.6,40.7c-25,16.4-49.9,32.9-74.9,49.3
		c-16.4,10.8-32.8,21.4-49.2,32.1c-1.5,1-3.6,2.5-4.9,0.7c-1.7-2.3,1.1-3,2.4-3.9c14.9-9.9,29.9-19.8,44.9-29.7
		c15.7-10.3,31.4-20.5,47.2-30.7c25.8-16.7,51.6-33.4,77.3-50.2c15.3-10,30.5-20.2,45.7-30.2c1.5-1,2.8-2.4,4.8-2.5
		C1429-206.3,1429-204.7,1429-203z"/>
	<path class="st18" d="M1015-300c2.1,0.1,3.8-0.9,5.5-2c29.1-19.1,58.3-38.3,87.5-57.4c25.4-16.6,50.9-33.2,76.3-49.8
		c11.8-7.7,23.6-15.4,35.4-23.3c1.7-1.1,4.1-1.7,4.3-4.4c2.7,0,5.3,0,8,0c-0.4,2.7-3,2.9-4.7,4c-26.2,17.3-52.4,34.6-78.7,51.9
		c-34.6,22.7-69.3,45.3-104,68c-8.2,5.4-16.4,10.7-24.6,16.1c-1.5,1-2.9,2.3-5,2C1015-296.7,1015-298.3,1015-300z"/>
	<path class="st18" d="M1429-178c-2.1-0.1-3.8,0.9-5.5,2c-27.4,18-54.7,35.9-82.2,53.8c-25.9,16.9-51.9,33.6-77.8,50.5
		c-10.7,7-21.4,14-32.1,21c-1.5,1-3.2,2.8-4.7,0.5c-1.4-2.2,1.1-2.7,2.4-3.5c19.5-12.7,39-25.4,58.5-38.1
		c17.4-11.4,34.7-22.9,52-34.2c14.7-9.7,29.5-19.3,44.3-28.9c12.9-8.4,25.9-16.9,38.9-25.2c1.9-1.2,3.6-3.1,6.2-2.8
		C1429-181.3,1429-179.7,1429-178z"/>
	<path class="st18" d="M1429-154c-2.3-0.1-4.1,1.1-5.9,2.3c-23.5,15.4-47,30.6-70.5,46c-26,17-52,34-78,51c-7.6,5-15.3,10-23,14.9
		c-1.2,0.8-2.7,2.8-4.1,0.4c-1.3-2.2,1-2.9,2.2-3.7c12.7-8.5,25.5-16.9,38.3-25.3c14.7-9.6,29.5-19.2,44.3-28.8
		c25.8-16.7,51.5-33.4,77.3-50.2c5.4-3.5,10.8-7.2,16.1-10.8c1-0.7,2.1-0.9,3.3-0.9C1429-157.3,1429-155.7,1429-154z"/>
	<path class="st18" d="M1015-323c2.3-0.3,3.8-1.9,5.6-3.1c29.6-19.3,59.2-38.7,88.7-58.1c25.7-16.8,51.3-33.7,77-50.5
		c0.9-0.6,1.6-1.2,1.7-2.3c2.3,0,4.6,0,7,0c-3.3,4.9-8.7,6.9-13.3,10c-16.7,11.2-33.6,22.1-50.4,33.1c-14.9,9.7-29.8,19.4-44.7,29.1
		c-15.8,10.4-31.6,20.8-47.4,31.2c-6.5,4.3-13.1,8.5-19.6,12.8c-1.4,0.9-2.7,1.9-4.5,1.7C1015-320.3,1015-321.7,1015-323z"/>
	<path class="st18" d="M1429-130c-2.3-0.1-4.1,1.1-5.9,2.3c-23.5,15.4-47,30.6-70.5,46c-25,16.3-50,32.7-75,49
		c-1.8,1.2-3.5,2.5-5.4,3.6c-1.4,0.8-3.3,1.9-4.4-0.1c-1.1-2,1.3-2.5,2.3-3.2c9.5-6.4,19.2-12.6,28.7-18.9
		c17.2-11.3,34.5-22.5,51.7-33.8c24.6-16.1,49.3-32.1,73.9-48.2c1.4-0.9,2.7-1.9,4.5-1.7C1429-133.3,1429-131.7,1429-130z"/>
	<path class="st18" d="M1429-106c-2-0.3-3.4,1-5,2c-28.2,18.5-56.4,36.9-84.7,55.4c-15.2,9.9-30.3,19.8-45.5,29.7
		c-0.6,0.4-1.1,0.7-1.7,1.1c-1.3,0.9-2.6,1.1-3.5-0.3c-1-1.5,0.3-2.5,1.4-3.3c5.2-3.6,10.5-7.1,15.8-10.5c19.5-12.7,39-25.3,58.5-38
		c20.1-13,40.1-26.1,60.1-39.1c1.4-0.9,2.8-1.8,4.5-2C1429-109.3,1429-107.7,1429-106z"/>
	<path class="st18" d="M1015-348c6.8-1.7,11.8-6.6,17.4-10.2c13.9-8.7,27.4-18.1,41.1-27.1c16.7-11,33.5-22,50.3-33
		c8.3-5.4,16.7-10.8,25-16.2c1-0.6,2-1.2,2.2-2.5c2.3,0,4.6,0,7,0c-0.4,2.3-2.5,2.9-4.2,4c-24.9,16.3-49.8,32.6-74.7,48.9
		c-19.9,13-39.7,26-59.6,39.1c-1.4,0.9-2.8,1.8-4.5,2C1015-344.7,1015-346.3,1015-348z"/>
	<path class="st18" d="M1429-82c-6.6,1.4-11.3,6.2-16.7,9.6c-16.3,10.2-32.2,21.1-48.3,31.7c-16.2,10.7-32.5,21.2-48.8,31.8
		c-0.7,0.5-1.4,0.9-2.1,1.3c-1.2,0.9-2.6,2.1-3.7,0.1c-1-1.7,0.2-2.7,1.6-3.6c7.4-4.8,14.7-9.6,22.1-14.5
		c16.1-10.5,32.2-21,48.4-31.5c14.5-9.4,28.9-18.9,43.4-28.2c1.2-0.8,2.7-1.2,4.1-1.7C1429-85.3,1429-83.7,1429-82z"/>
	<path class="st18" d="M1015-372c2.2,0.3,3.8-1.2,5.4-2.2c23.6-15.5,47.1-31,70.7-46.4c6.4-4.2,12.8-8.3,19.2-12.5
		c1.5-1,3.4-1.6,3.8-3.7c2.3,0,4.6,0,7,0c-0.4,2.3-2.5,3.2-4,4.2c-14.1,9.3-28.5,18.3-42.6,27.6c-13.7,9-27.3,18.3-41.1,27.2
		c-6,3.8-11.5,8.4-18.3,10.9C1015-368.7,1015-370.3,1015-372z"/>
	<path class="st18" d="M1429-58c-6.8,1.7-11.8,6.6-17.5,10.2c-15.6,9.8-30.9,20.1-46.3,30.2c-9.9,6.5-19.7,12.9-29.6,19.4
		c-0.7,0.5-1.4,1-2.1,1.4c-1.4,0.7-3,1.3-3.9-0.5c-0.9-1.7,0.7-2.3,1.8-3c9.6-6.3,19.2-12.6,28.8-18.9c21.4-14,42.9-27.9,64.3-41.9
		c1.4-0.9,2.8-1.8,4.5-2C1429-61.3,1429-59.7,1429-58z"/>
	<path class="st19" d="M1121-436.9c-2.3,0-4.6,0-7,0c-10,0-20,0-30,0c-2.3,0-4.6,0-7,0c-20.7,0-41.3-0.1-62-0.1
		c0.9-2.1,2.7-0.9,4-0.9c53.5-0.1,107-0.1,160.5-0.1c81.7,0,163.3,0,245,0.1c1.5,0,3.4-1.2,4.5,0.9c-5,0-10,0-15,0.1
		c-2.3,0-4.6,0-7,0c-10,0-20,0-30,0c-2.3,0-4.6,0-7,0c-10,0-20,0-30,0c-2.3,0-4.6,0-7,0c-10,0-20,0-30,0c-2.3,0-4.6,0-7,0
		c-9.3,0-18.7,0-28,0c-2.3,0-4.6,0-7,0c-9.7,0-19.4,0-29,0c-2.7,0-5.3,0-8,0c-9.7,0-19.4,0-29,0c-2.3,0-4.6,0-7,0c-10,0-20,0-30,0
		c-2.3,0-4.6,0-7,0C1141-436.9,1131-436.9,1121-436.9z"/>
	<path class="st18" d="M1429-35c-6.8,1.7-11.8,6.6-17.5,10.2c-15.6,9.8-30.9,20.1-46.3,30.2c-3.2,2.1-6.4,4.2-9.6,6.2
		c-1.2,0.7-2.8,2-3.9,0.2c-1.1-1.8,0.7-2.7,1.9-3.5c11.5-7.6,23-15.2,34.6-22.7c12-7.8,24-15.5,36-23.3c1.5-1,3-2.1,4.9-2.3
		C1429-38.3,1429-36.7,1429-35z"/>
	<path class="st18" d="M1077-436.9c2.3,0,4.6,0,7,0c-0.1,2.5-2.3,3.1-3.9,4.2c-19.3,12.5-38.7,24.9-57.6,38.1
		c-2.3,1.6-4.6,3.2-7.5,3.7c0-1.7,0-3.3,0-5c3.1,0.2,5.3-2,7.5-3.4c17.6-11.5,35.1-23.1,52.6-34.7
		C1076.2-434.8,1076.9-435.6,1077-436.9z"/>
</g>
<g class="st20">
	<g>
		<line class="st21" x1="4545.2" y1="-3445" x2="2665.1" y2="-2214.8"/>
		<line class="st21" x1="4702.5" y1="-3353.3" x2="2822.4" y2="-2123.1"/>
		<line class="st21" x1="4859.9" y1="-3261.7" x2="2979.7" y2="-2031.5"/>
		<line class="st21" x1="5017.2" y1="-3170" x2="3137" y2="-1939.8"/>
		<line class="st21" x1="5174.5" y1="-3078.4" x2="3294.4" y2="-1848.2"/>
		<line class="st21" x1="5331.8" y1="-2986.7" x2="3451.7" y2="-1756.5"/>
		<line class="st21" x1="5489.1" y1="-2895.1" x2="3609" y2="-1664.9"/>
		<line class="st21" x1="5646.4" y1="-2803.4" x2="3766.3" y2="-1573.2"/>
		<line class="st21" x1="5803.8" y1="-2711.8" x2="3923.6" y2="-1481.5"/>
		<line class="st21" x1="5961.1" y1="-2620.1" x2="4080.9" y2="-1389.9"/>
		<line class="st21" x1="6118.4" y1="-2528.5" x2="4238.3" y2="-1298.2"/>
		<line class="st21" x1="6275.7" y1="-2436.8" x2="4395.6" y2="-1206.6"/>
		<line class="st21" x1="6433" y1="-2345.1" x2="4552.9" y2="-1114.9"/>
		<line class="st21" x1="6590.3" y1="-2253.5" x2="4710.2" y2="-1023.3"/>
		<line class="st21" x1="6747.6" y1="-2161.8" x2="4867.5" y2="-931.6"/>
		<line class="st21" x1="6905" y1="-2070.2" x2="5024.8" y2="-840"/>
		<line class="st21" x1="7062.3" y1="-1978.5" x2="5182.1" y2="-748.3"/>
		<line class="st21" x1="7219.6" y1="-1886.9" x2="5339.5" y2="-656.7"/>
		<line class="st21" x1="7376.9" y1="-1795.2" x2="5496.8" y2="-565"/>
	</g>
	<g>
		<line class="st21" x1="4456" y1="-3487.5" x2="2575.9" y2="-2257.3"/>
		<line class="st21" x1="4613.3" y1="-3395.8" x2="2733.2" y2="-2165.6"/>
		<line class="st21" x1="4770.7" y1="-3304.2" x2="2890.5" y2="-2073.9"/>
		<line class="st21" x1="4928" y1="-3212.5" x2="3047.8" y2="-1982.3"/>
		<line class="st21" x1="5085.3" y1="-3120.9" x2="3205.2" y2="-1890.6"/>
		<line class="st21" x1="5242.6" y1="-3029.2" x2="3362.5" y2="-1799"/>
		<line class="st21" x1="5399.9" y1="-2937.5" x2="3519.8" y2="-1707.3"/>
		<line class="st21" x1="5557.2" y1="-2845.9" x2="3677.1" y2="-1615.7"/>
		<line class="st21" x1="5714.6" y1="-2754.2" x2="3834.4" y2="-1524"/>
		<line class="st21" x1="5871.9" y1="-2662.6" x2="3991.7" y2="-1432.4"/>
		<line class="st21" x1="6029.2" y1="-2570.9" x2="4149.1" y2="-1340.7"/>
		<line class="st21" x1="6186.5" y1="-2479.3" x2="4306.4" y2="-1249.1"/>
		<line class="st21" x1="6343.8" y1="-2387.6" x2="4463.7" y2="-1157.4"/>
		<line class="st21" x1="6501.1" y1="-2296" x2="4621" y2="-1065.7"/>
		<line class="st21" x1="6658.4" y1="-2204.3" x2="4778.3" y2="-974.1"/>
		<line class="st21" x1="6815.8" y1="-2112.7" x2="4935.6" y2="-882.4"/>
		<line class="st21" x1="6973.1" y1="-2021" x2="5092.9" y2="-790.8"/>
		<line class="st21" x1="7130.4" y1="-1929.3" x2="5250.3" y2="-699.1"/>
		<line class="st21" x1="7287.7" y1="-1837.7" x2="5407.6" y2="-607.5"/>
	</g>
</g>
</svg>
